<?xml version="1.0" standalone="no"?>
<!DOCTYPE svg PUBLIC "-//W3C//DTD SVG 1.1//EN" "http://www.w3.org/Graphics/SVG/1.1/DTD/svg11.dtd" >
<svg xmlns="http://www.w3.org/2000/svg">
<metadata></metadata>
<defs>
<font id="honey_scriptsemibold" horiz-adv-x="448" >
<font-face units-per-em="2048" ascent="1638" descent="-410" />
<missing-glyph horiz-adv-x="389" />
<glyph horiz-adv-x="2048" />
<glyph horiz-adv-x="2048" />
<glyph unicode="&#xd;" horiz-adv-x="512" />
<glyph unicode=" "  horiz-adv-x="389" />
<glyph unicode="&#x09;" horiz-adv-x="389" />
<glyph unicode="&#xa0;" horiz-adv-x="389" />
<glyph unicode="!" horiz-adv-x="335" d="M143 53q0 -35 25 -58.5t55 -23.5q18 0 38 28.5t20 53.5q0 47 -13 72q-16 49 -53 49q-23 0 -47 -49q-25 -47 -25 -72zM143 520q0 -186 47 -287v3q12 -25 31 -25q8 0 37 18q-8 39 -11 103.5t-3 156.5q0 510 84 787l-2 16q-41 59 -78 60q-39 0 -53 -27 q-10 -121 -19.5 -227.5t-13.5 -204.5q-18 -354 -19 -373z" />
<glyph unicode="&#x22;" d="M86 956q0 -45 45 -45q27 0 86 133q80 183 86 224v2q0 25 -59 61q-63 -172 -64 -176q-94 -168 -94 -199zM180 913q0 -41 39 -41q25 0 53 54l50 94q20 41 24 51q20 41 32.5 84t20.5 84v6q0 18 -59 60q-63 -141 -66 -168l-61 -133q-33 -68 -33 -91z" />
<glyph unicode="#" horiz-adv-x="888" d="M0 590q0 -55 55 -55q33 0 62 16l112 24l-30 -198q6 -37 45 -37q68 0 86 51v6q2 6 2 37l24 168l131 21l-26 -191q0 -33 35 -33q53 0 86 64v4q2 6 2 39l14 139l209 39q20 4 38.5 26.5t18.5 41.5q0 37 -57 36l-193 -30l19 129l182 39q57 12 57 69q0 37 -59 37l-170 -31 l12 120t4 42q0 59 -32 66q-4 0 -6 2h-9q-45 0 -53 -68l-24 -182l-129 -25q0 16 2 38t6 50q4 29 7 51.5t3 37.5q0 39 -47 38h-6q-49 0 -58 -67l-26 -170l-230 -49q-57 -20 -57 -72q0 -55 55 -55q31 0 60 16l153 33l-18 -111l-193 -34q-57 -20 -57 -72zM371 717l20 119l129 28 l-18 -125z" />
<glyph unicode="$" horiz-adv-x="503" d="M0 352q53 -154 109 -207l104 -71q4 -53 6 -90t4 -56q4 -72 51 -71h15q6 2 12 2q12 63 12 139v25q-2 8 -2 24q35 14 59.5 24.5t41.5 16.5q90 60 90 197q0 100 -41 141l-215 217q-70 70 -70 219q0 27 4 54.5t13 60.5q20 82 61 82q59 0 78 -152q0 4 1 -11t3 -52q2 -23 2 -39 v-25q10 -121 55 -121q76 0 76 224q0 96 -39 153q-33 51 -121 105v73q0 29 2 41q-2 82 -69 82q-20 -80 -25 -182q-152 -25 -151 -287q0 -176 84 -290l-3 2q10 -20 154 -152v2q74 -68 74 -151q0 -43 -24.5 -74t-61.5 -31q-72 0 -148 94q-78 96 -108 97q-12 0 -33 -13z" />
<glyph unicode="%" horiz-adv-x="929" d="M0 877q0 -221 172 -222q90 0 127 115v-2q14 31 39 209q29 -4 63.5 -7t75.5 -3t101 30q4 2 7 4.5t7 4.5q-418 -670 -488 -949q0 -27 17.5 -49t40.5 -22q37 0 41 30q20 168 256 586q221 393 364 543q86 88 86 125q0 18 -26.5 39.5t-44.5 21.5q-35 -12 -58 -49 q-31 -55 -35 -59q-186 -174 -319 -174q-33 0 -90 22q-20 260 -158 260q-94 0 -147 -201q-31 -121 -31 -253zM113 868q0 180 80 346q12 -6 12 -24q4 -88 35 -139q-2 -63 -3 -94t-1 -29q0 -27 2 -37v-31q-12 -55 -33 -78q-23 -41 -49 -41q-43 0 -43 127zM506 264 q0 -289 168 -289q176 1 176 357q0 137 -25 192q-47 102 -161 103q2 0 -6.5 1t-26.5 3h-17q-2 -4 -7 -12.5t-13 -18.5q-4 -8 -8 -12q-80 -115 -80 -324zM612 223q0 80 21 183q25 131 55 131q74 -1 74 -177q0 -309 -94 -309q-55 0 -56 172z" />
<glyph unicode="&#x26;" horiz-adv-x="1173" d="M98 260q0 -121 82 -201t205 -79q133 0 322 141l110 -117q41 -41 76 -41q18 0 44 18.5t26 36.5q-61 27 -89 58q-35 41 -59 67.5t-41 40.5q6 6 33 40t74 95q80 104 102 105h147q27 33 27 51l-2 8q-23 43 -182 43l-410 -2q-16 41 -32.5 84t-32.5 86q37 43 51 58 q41 45 68.5 75.5t41.5 49.5q104 129 105 229q0 102 -74 182q-74 82 -174 82q-98 0 -158 -121q-47 -98 -47 -207q0 -131 56 -305l-168 -196q-100 -115 -101 -281zM190 209q0 268 220 420q14 -37 25 -64.5t20 -46.5q-39 -10 -64.5 -14t-38.5 -6q-6 -25 -6 -70q37 0 96 -6 q57 -6 68 -6q53 -86 84 -140t41 -79q-12 -43 -125 -88q-104 -43 -158 -43q-55 0 -112 45l2 -2q-51 45 -52 100zM418 1008q0 76 28 166q37 111 103 110q20 0 41.5 -12t37 -31.5t26 -45t10.5 -50.5q0 -82 -129 -230q-43 -49 -80 -86q-37 104 -37 179zM623 418h6h24t21 2h133 q-10 -20 -20.5 -39t-20.5 -35v2q-20 -27 -32.5 -42t-16.5 -21q-23 29 -47.5 62.5t-46.5 70.5z" />
<glyph unicode="'" horiz-adv-x="0" d="M-113 971q2 -49 43 -49q25 0 60 96v-2q59 143 59 190q0 43 -61 92q-35 -129 -59.5 -209.5t-41.5 -117.5z" />
<glyph unicode="(" horiz-adv-x="393" d="M125 588q0 -248 59 -498q76 -313 205 -313q23 0 45 12l4 31q-4 4 -9 8t-9 8q-31 20 -43 37q-80 117 -123 371q-16 102 -25.5 199.5t-9.5 193.5q0 197 64 432q53 193 94 266l-2 -4l49 60q0 8 -9 21t-21.5 24.5t-27 19.5t-22.5 8q-47 0 -88 -121q-31 -92 -43 -141l2 2 q-90 -223 -90 -616z" />
<glyph unicode=")" horiz-adv-x="307" d="M16 1415q0 -31 27 -82q35 -125 59.5 -224t36.5 -173q14 -86 20.5 -190.5t6.5 -227.5q0 -436 -100 -651q-10 -10 -21.5 -22.5t-26.5 -26.5q18 -49 54 -49q78 0 131 206q14 82 24.5 144.5t14.5 105.5q18 168 18 293q0 250 -45 512l-63 375q-18 59 -84 59q-51 0 -52 -49z " />
<glyph unicode="*" horiz-adv-x="393" d="M0 1026q0 -33 39 -33q-12 0 37 6l-8 -28q0 -20 24 -47q20 14 37.5 31.5t32.5 39.5q43 -63 67 -63q41 0 41 29q0 6 -10 22q-20 29 -35 47q27 6 66 6q18 18 24 39l-8 21q-25 12 -63 12h-6q23 35 22 41q0 14 -39 53q-27 -29 -40 -46t-17 -21q-47 59 -60 59q-16 0 -34 -25 q18 -57 32 -84l-47 -14v2q-55 -18 -55 -47z" />
<glyph unicode="+" horiz-adv-x="729" d="M82 451q0 -86 57 -156q59 -72 140 -72q29 0 69 6q0 -8 2 -35.5t2 -35.5q-2 -18 -3 -30.5t-1 -16.5q0 -43 22.5 -75t59.5 -32q20 0 31 29q-20 70 -21 117v108q184 51 293 57l10 35l-8 6q-51 39 -88 39q-27 0 -119 -30q-37 -12 -86 -25q14 57 19 80q12 59 18 91t8 36 q0 4 15 35q16 37 16 43q0 41 -45 41q-47 0 -55 -31q-10 -41 -17.5 -67.5t-11.5 -41.5q-55 115 -149 115q-70 0 -114 -56.5t-44 -133.5zM160 465q0 33 19.5 59.5t43.5 26.5q63 0 101 -74q32 -59 32 -131q0 -27 -41 -27q-66 0 -110.5 42t-44.5 104z" />
<glyph unicode="," horiz-adv-x="258" d="M-47 -102q0 -43 47 -43q20 0 84 125q47 90 47 98q0 41 -70 74q-20 -47 -33.5 -81t-19.5 -51v3q-55 -104 -55 -125z" />
<glyph unicode="-" horiz-adv-x="548" d="M92 264q0 -23 43 -22h12q68 6 80 6q135 6 222 6q86 14 86 55q0 23 -33 23q-2 0 -23 -4l4 2q-18 -2 -28.5 -3t-12.5 -1h4q-8 0 -14 -2q-14 0 -39.5 -1t-64.5 -4q-20 -2 -37 -2h-33h-10q-16 0 -30.5 -1t-24.5 -3q-23 -2 -33 -3t-13 -1q-55 -10 -55 -45z" />
<glyph unicode="." horiz-adv-x="192" d="M41 45q0 -55 61 -55q62 -1 62 71q0 53 -62 54q-23 0 -42 -22.5t-19 -47.5z" />
<glyph unicode="/" horiz-adv-x="759" d="M-4 57q0 -27 15.5 -49t37.5 -22q35 0 39 30q20 166 256 586q109 195 199 330t162 213q86 92 86 125q0 18 -25 39.5t-43 21.5l-8 -2q-35 -16 -103 -121l-100 -147q-59 -90 -131 -209t-154 -268q-201 -369 -231 -527z" />
<glyph unicode="0" horiz-adv-x="872" d="M0 494q0 -174 35 -273v2q27 -78 86 -131q100 -92 241 -92q201 0 328 268q98 211 98 434q0 35 -7 98.5t-21 155.5q-33 209 -82 230l-141 82q-115 66 -168 65q-184 0 -293 -354q-76 -246 -76 -485zM141 434q0 172 72 449q86 326 201 325q141 0 209 -151q51 -111 51 -277 q0 -223 -66 -420q-88 -260 -264 -260q-113 0 -164 119q-39 86 -39 215z" />
<glyph unicode="1" horiz-adv-x="288" d="M16 84q0 -121 97 -121q41 0 41 35q-4 35 -7.5 86t-3.5 117q0 133 15.5 338.5t44.5 488.5q6 25 10 40t6 24h-2q12 32 12 73q0 70 -77 70q-31 0 -62 -14q-2 -23 -10 -65t-25 -103q-27 -100 -26 -166q0 -41 37 -74q0 -8 2 -10v-10q0 -35 -6.5 -112t-16.5 -200 q-14 -154 -21.5 -253t-7.5 -144z" />
<glyph unicode="2" horiz-adv-x="782" d="M-29 37q0 -90 103 -90q70 0 196 26q127 27 203 27h127q109 0 109 10l2 2v-18q55 0 55 59q0 31 -141 47q-111 12 -168 13l-248 -4q76 86 143.5 181t130.5 202q172 285 172 483q0 135 -120 227q-111 86 -250 86q-84 0 -133 -84q-16 -27 -64 -160q-82 -227 -82 -325 q0 -88 68 -88q63 0 94 133q10 41 12 78l25 119q29 135 45 174q23 53 72 53q74 0 123 -43t49 -111q0 -205 -123 -465q-111 -238 -262 -407q-6 -10 -82 -62q-55 -41 -56 -63z" />
<glyph unicode="3" horiz-adv-x="790" d="M-43 162q0 -86 135 -166q133 -78 219 -78q188 0 297 135q101 125 101 320q0 104 -62 176q-47 55 -153 110q164 195 163 367q0 127 -96 199q-88 63 -219 63q-92 0 -143 -57q-37 -37 -76 -133q-78 -197 -78 -314q0 -45 21 -79q23 -47 61 -48q115 0 115 351q0 92 22 133 q31 53 119 53q127 0 127 -164q0 -90 -27 -176q-31 -109 -84 -152h-6q-14 0 -18 3h-8q-2 2 -7 2q-6 2 -36 2q-20 0 -41 -10.5t-36.5 -27t-25.5 -37t-10 -42.5q0 -47 47 -64l195 50q47 -2 82 -72q25 -68 24 -133q0 -125 -74 -238v2q-80 -123 -188 -123q-86 0 -145 47 q-12 12 -52 86q-59 113 -98 111q-45 -2 -45 -96z" />
<glyph unicode="4" horiz-adv-x="915" d="M-18 446q0 -37 81 -149q39 4 95.5 13t128.5 26q51 10 91 16t73 6q16 0 18 -2v-125q0 -8 -2 -36.5t-2 -36.5v2q-2 -10 -2 -29v-47q0 -166 92 -166q72 0 72 35h-37l16 16q4 0 4 6q0 10 -10 37q-18 45 -18 82v4q0 12 1 30.5t1 37.5q0 18 1 33.5t1 21.5q2 41 4 75t6 56 q2 2 25 2h24t41 -2q27 -2 41 -2h25q118 1 118 64q0 49 -69 51l-201 4q2 47 18.5 182t45.5 359q0 20 20 80q14 59 14 81q0 41 -61 84q-59 43 -98 48q-47 -4 -93 -74q-14 -20 -23 -34.5t-13 -23.5l-25 -34q-98 -141 -190 -312q-29 -53 -65 -112.5t-81 -126.5 q-68 -104 -67 -140zM131 451q0 23 55 149q23 49 53.5 104.5t71.5 114.5l121 180q57 82 80 111q2 -6 2 -37q0 -53 -3 -116.5t-11 -139.5q-18 -186 -25 -352q-45 -4 -65 -6q-35 -2 -54.5 -3t-27.5 -1q-33 0 -84 -6h2q-55 -6 -80 -7q-35 0 -35 9z" />
<glyph unicode="5" horiz-adv-x="847" d="M-43 125q0 -88 160 -137v2q125 -43 217 -43q96 0 175 28.5t135 83t87 130t31 171.5q0 172 -121 275h2q-117 104 -283 104q-31 0 -106 -28h2q-33 -10 -54.5 -17.5t-33.5 -11.5q6 98 43 369q27 25 170 43q164 18 229 24q16 2 36 11.5t36 23.5t27.5 30.5t11.5 33.5 q-18 33 -103 32q-59 0 -239 -18q-276 -29 -287 -57q-10 -25 -17 -61t-9 -83h2v-139q0 -57 -13 -139q-8 -47 -11 -84t-3 -62q0 -39 29.5 -78t68.5 -39q113 76 148 93q78 39 155 39q90 0 138 -60v2q45 -51 45 -149q0 -152 -88 -258q-94 -113 -242 -113q-63 0 -145 63 q-96 74 -125 74q-68 0 -68 -55zM92 1030h12l-4 -4z" />
<glyph unicode="6" horiz-adv-x="821" d="M0 453q0 -201 92 -320q102 -133 297 -133h4q166 0 264 137q88 119 88 295q0 156 -88 268q-96 123 -245 123q-123 0 -250 -121q10 72 26.5 132.5t38.5 111.5q10 23 37 77t74 142v-2q51 92 106 92q61 0 84 -61q12 -35 13 -145q0 -66 6 -91q14 -57 108 -57q39 98 39 178 q0 104 -45 168q-29 39 -125 78q-98 43 -147 43q-166 0 -285 -395q-92 -305 -92 -520zM133 377q0 147 66 237q76 104 217 105q102 0 153 -82q45 -65 45 -174q0 -111 -59 -230q-70 -137 -174 -137q-248 0 -248 281z" />
<glyph unicode="7" horiz-adv-x="659" d="M-39 1204q0 -66 49 -65l74 28h-2q61 27 125 33q70 8 116 12.5t68 4.5q41 0 58 -5l-216 -489q-221 -504 -221 -625q0 -66 148 -65q-25 39 -25 63q0 205 453 1014q10 16 26.5 40t38.5 54q31 39 31 74l-4 12q-53 66 -86 66q-156 0 -354 -25q-86 -10 -133.5 -16t-55.5 -10 q-90 -23 -90 -101z" />
<glyph unicode="8" horiz-adv-x="972" d="M0 340q0 -162 135 -262q123 -92 287 -92q162 0 293 90q143 100 143 260q0 145 -137 276q-37 35 -96.5 79t-143.5 95q59 45 76 58q137 104 252 239h-2q78 90 78 168q0 117 -82 117q-2 -20 -4 -36.5t-4 -31.5v5q-16 -53 -54 -84q-14 10 -42.5 34.5t-71.5 63.5 q-96 88 -185 88q-125 0 -221 -127q-88 -119 -88 -248q0 -119 129 -244q-109 -109 -166 -188q-96 -137 -96 -260zM106 319q2 143 283 394q332 -164 332 -324v-2q0 -125 -111 -201q-100 -66 -229 -65q-98 0 -180 49q-96 59 -95 149zM262 1020q0 57 66 160v-2q80 117 164 116 q57 0 92 -34q25 -27 84 -121q-10 -14 -48 -51.5t-104 -96.5v2q-145 -127 -151 -127q-37 0 -70 52q-33 51 -33 102zM471 795l4 -2v-2z" />
<glyph unicode="9" horiz-adv-x="792" d="M0 811q0 -168 106 -256q100 -86 269 -86q31 0 80 14t80 15q0 -45 -7 -133q-6 -90 -6 -134q4 -195 76 -225q20 20 43 29l14 -35q18 6 35 31q-35 104 -39 127q-2 10 -2 32v64q0 117 7.5 226.5t21.5 215.5l63 465q10 66 23 74l10 16q0 41 -96 60q-20 14 -41 14 q-35 0 -39 -65q-182 115 -215 114q-143 0 -272 -219q-111 -188 -111 -344zM129 735v4q0 123 90 308q98 201 199 200q49 0 114 -63q58 -54 60 -62l-55 -489q-23 -23 -84 -39h2q-33 -8 -59.5 -11t-47.5 -3q-219 0 -219 155zM598 6q-4 -6 25 -6q-23 2 -25 6z" />
<glyph unicode=":" horiz-adv-x="227" d="M72 74q0 -72 55 -72q59 0 59 72t-59 71q-20 0 -37.5 -22.5t-17.5 -48.5zM82 477q0 -31 19.5 -54.5t43.5 -23.5q58 0 58 70q0 55 -76 80q-16 0 -30.5 -23.5t-14.5 -48.5z" />
<glyph unicode=";" horiz-adv-x="319" d="M2 -117q0 -43 37 -43q29 0 113 111q65 88 65 102q0 47 -72 78q-16 -39 -27.5 -66.5t-19.5 -44.5v3q-12 -25 -59 -72q-37 -41 -37 -68zM104 463q0 -74 74 -74q68 1 68 64q0 37 -22.5 62.5t-57.5 25.5q-61 -35 -62 -78z" />
<glyph unicode="&#x3c;" horiz-adv-x="741" d="M0 508q0 -68 98 -111q70 -23 125.5 -37t95.5 -22q113 -23 244 -23q86 0 86 41v2q0 47 -151 60q-203 18 -344 78q240 94 432 258q72 43 71 86v12q-6 31 -34 31q-4 0 -172 -107q-88 -57 -138.5 -88t-64.5 -37q-125 -59 -152 -63q-23 -4 -39 -7t-26 -8q-31 -18 -31 -55v-10z " />
<glyph unicode="=" horiz-adv-x="733" d="M51 371q0 -31 47 -31h8q127 0 248 6q80 4 124 6t54 2q93 21 93 76q0 29 -39 29h-13l-43 -6h-8q-2 -2 -6 -2l-244 -7q-23 -2 -36 -2h-21q-39 -2 -64.5 -3t-35.5 -5q-63 -14 -64 -63zM51 575q0 -31 47 -30h8q127 0 248 6q80 4 124 6t54 2q33 6 63 28.5t30 45.5q0 29 -39 29 h-13q-16 -2 -26 -3q-10 0 -17 -2h5q-27 0 -59 -1t-73 -3l-53 -2q-23 -2 -43 -2q-18 0 -35 -2q-23 -2 -36 -2h-21q-39 -2 -65.5 -3t-43.5 -5q-55 -16 -55 -62z" />
<glyph unicode="&#x3e;" horiz-adv-x="739" d="M51 295q0 -35 35 -35h2q20 0 125 45q225 92 371 105q6 -2 39 -2q63 0 73 53l-2 -2q2 4 2 20q0 61 -80 115l-151 76q-147 74 -320 92q-12 0 -16 2h-14q-47 0 -58 -29v-8q0 -47 125 -80q236 -66 355 -135q-63 -14 -128 -34.5t-135 -49.5q-47 -20 -78.5 -33.5t-48.5 -21.5 q-96 -35 -96 -70v-8z" />
<glyph unicode="?" horiz-adv-x="759" d="M-63 750q0 -88 57 -88q6 0 31 10q-2 18 -3.5 30.5t-1.5 18.5q0 86 50 176q16 29 45.5 72t72.5 96q182 225 301 225q109 0 109 -123q0 -131 -102 -274q-27 -35 -44.5 -58.5t-27.5 -37.5q-59 -80 -90 -123t-35 -47q-111 -152 -111 -273q0 -131 62 -131q45 0 45 37 q0 8 -6 25q-12 12 -17 32l35 127q39 53 92.5 122t122.5 153q55 68 89 113t44 67q47 98 47 209q0 115 -51 192q-61 92 -168 93q-141 0 -303 -162q-244 -248 -243 -481zM174 55q0 -74 74 -73q35 0 60.5 30.5t25.5 71.5q0 70 -86 70q-31 0 -52.5 -31t-21.5 -68z" />
<glyph unicode="@" horiz-adv-x="1075" d="M43 455q0 -221 137 -351q139 -127 363 -127q190 0 346 150q4 27 7 40t3 17q0 53 -43 54q-25 0 -68 -43q-133 -133 -266 -134h-6q-162 0 -258 127q-88 113 -88 281v10q0 365 223 588q119 119 240 119h4q143 0 235 -146q80 -127 80 -278q0 -92 -26 -178q-31 -104 -82 -156 q-14 -14 -39 -14q-23 0 -45 41v-2q-23 55 -23 73v6q0 170 68 379l-80 27l-33 66q-27 57 -127 57q-55 0 -116 -221q-51 -180 -52 -265v-26q0 -285 133 -285q90 0 136 150q20 -37 30 -47q59 -53 107 -54q92 2 144 55.5t85 186.5q27 104 27 209q0 195 -113 346 q-125 168 -309 168h-6q-186 0 -322 -139q-266 -272 -266 -676v-8zM500 438q0 178 32 295q59 219 80 219q23 0 29 -78l25 -32q-2 -10 -5.5 -32t-9.5 -54q-4 -29 -7 -50.5t-3 -37.5q0 -53 -35 -164q-35 -117 -71 -146q-12 0 -23.5 30t-11.5 50z" />
<glyph unicode="A" horiz-adv-x="1345" d="M-51 117q76 -162 252 -162q141 0 268 197q57 92 98 158.5t66 109.5q129 10 238.5 16t201.5 10q80 -348 156 -442q29 -4 48 -6t34 -2q55 0 55 37l-6 12q-4 4 -7 6t-5 4l-22.5 22.5t-10.5 12.5q-27 66 -55.5 180.5t-63.5 278.5q-84 403 -84 665q0 14 4 47t4 48q0 27 -61 67 q-57 39 -90 39q-82 0 -82 -47q0 -12 6 -20q0 -2 2 -5v-4q0 -57 -113 -346q-59 -154 -114.5 -273.5t-108.5 -211.5q-223 -27 -223 -55q0 -49 67 -50q6 0 15.5 1.5t21.5 3.5l37 6q16 0 21 -2q-41 -80 -76 -134.5t-62 -82.5q-98 -106 -243 -107q-78 0 -78 59q-18 0 -31 3l-12 2 h-4l-2 -2h-2q-25 -18 -27 -21zM686 524q63 117 141 330q49 133 81 216t48 118q2 0 5 -8v2q2 -16 2 -31q0 -14 2 -25q2 -37 18 -148.5t47 -301.5q6 -39 12.5 -74t12.5 -70z" />
<glyph unicode="B" horiz-adv-x="1038" d="M-39 1296q31 -57 86 -57h6q27 0 37 2h29l-8 -106q-25 -319 -25 -764v-31q-2 -10 -2 -27v-34v-84q0 -213 100 -215q29 0 35 53q25 -18 88 -39q129 -45 199 -45q160 0 317 164q158 164 158 325q0 260 -272 334q162 76 190 92q82 45 150 119q79 88 79 168q0 137 -167 213 q-123 57 -273 57q-104 0 -212.5 -9t-221.5 -26q-12 59 -80 60q-53 0 -55 -86q-158 -25 -158 -55v-9zM207 408v63q0 102 22 131q66 78 328 78q303 -1 303 -191q0 -131 -133 -282q-147 -166 -297 -166q-16 0 -102 41q-102 51 -117 55q2 10 2 72l-4 129q-2 37 -2 70zM227 739 q0 135 7.5 264.5t21.5 251.5q80 14 133 21.5t82 11.5q92 10 150.5 16.5t80.5 6.5q295 0 295 -125q0 -76 -106 -182q-100 -100 -178 -127q-342 -121 -486 -138z" />
<glyph unicode="C" horiz-adv-x="835" d="M0 444q0 -199 90 -325q102 -139 295 -139q123 0 252 55q131 59 201 149q10 29 14 45.5t6 20.5q0 37 -45 43l-18 -10l-33 -56q-185 -149 -397 -149h-3q-223 0 -223 315q0 289 109 598q113 322 248 322q59 0 125 -31q76 -37 75 -90q0 -57 -32 -186v2q-35 -135 -35 -189 q0 -39 18 -76q20 -45 58 -45q51 0 86 176q10 61 16 111.5t6 89.5q0 113 -20 156q-29 61 -105 110q-100 63 -219 64q-78 0 -125 -29h2q-158 -102 -262 -438q-84 -274 -84 -494z" />
<glyph unicode="D" horiz-adv-x="1083" d="M-39 979q0 -23 16.5 -43.5t30.5 -20.5q8 0 10 3h11q8 23 10 55q0 12 4 16h-2q106 72 272 135l-26 -266q-14 -135 -20.5 -267t-6.5 -267q0 -41 1 -74t3 -55q4 -45 6 -75t2 -46q0 -86 78 -86q45 0 45 37q0 8 -6 24v8q47 -18 57 -24l70 -47q43 -31 88 -31q156 0 293 235 q82 143 147 357q70 221 70 377q0 119 -49 202q-16 31 -102 125q-66 72 -125 86v-2q-45 16 -154 17q-61 0 -195 -35q-16 72 -106 72q-70 0 -70 -58q10 -12 15 -88q-66 -33 -113 -54.5t-74 -35.5q-180 -94 -180 -174zM381 193q47 854 94 1007q51 43 178 43q164 0 240 -53 q86 -65 86 -223q0 -225 -107 -521q-133 -368 -310 -368h-1q-37 0 -96 41h2z" />
<glyph unicode="E" horiz-adv-x="1179" d="M0 379q0 -213 207 -322q162 -82 397 -82q137 0 338 60q260 81 260 198q0 61 -108 62v-68l-115 -59q-53 -27 -178 -47q-109 -18 -189 -19q-190 0 -329 52q-188 72 -189 217q0 182 277 297q209 84 379 84q16 0 63 -29q57 20 57 72v10q0 43 -41 72h-24q-43 0 -135 -7h2 q-16 0 -41 -2t-60 -6q-68 -6 -100 -6q-84 0 -152 25h3q-90 31 -91 88q0 145 285 227q213 59 420 59q47 0 86 -16l-2 2q20 -14 37.5 -28.5t34.5 -30.5q51 0 51 80q0 84 -84 112l2 -2q-35 14 -133 14q-250 0 -473 -73q-317 -104 -318 -320q0 -104 64 -162q33 -33 108 -61 q-141 -74 -213 -154q-96 -106 -96 -237z" />
<glyph unicode="F" horiz-adv-x="882" d="M-25 1225q0 -10 2.5 -19.5t2.5 -11.5q41 -59 63 -59q8 2 14 8q10 8 17.5 12t9.5 6q12 8 27 13q106 12 177.5 20t110.5 12l-45 -518q-10 2 -80 2q-82 0 -143 -22q0 -4 -4 -21v-2q-2 0 -2 -2q10 -18 16 -25q66 -10 119 -14t96 -6q-6 -43 -6 -113v-350q0 -143 88 -143 q14 0 62 8q-31 74 -31 274v58q0 29 2 55q2 59 2 107q0 47 2 81q70 14 148 19q159 2 159 67q0 11 -6 35q-57 4 -115.5 6t-117.5 3q-51 0 -58 -3q2 197 86 521l265 28q113 12 192 13q39 0 77 -2t44 -2q8 0 29 4l-4 -2q43 1 43 36q0 43 -95 43h-45q-14 0 -36.5 1t-47 3.5 t-47 3.5t-37.5 1q-82 0 -244.5 -11.5t-410.5 -33.5q-70 -4 -117 -8.5t-74 -6.5q-88 -8 -88 -65z" />
<glyph unicode="G" horiz-adv-x="1036" d="M0 424q0 -201 94 -313v2q104 -119 299 -119q158 0 301 115q141 113 172 272q8 43 13.5 80t9.5 69q184 31 184 68q0 51 -184 51q-287 0 -623 -69q-80 -16 -80 -113q150 55 555 55q20 -14 21 -71q0 -129 -131 -246v2q-133 -115 -262 -115q-229 0 -230 305q0 313 199 684 q98 184 180 185q53 0 123 -45t70 -97q0 -33 -6 -96q-6 -66 -7 -94q0 -164 93 -164q83 0 83 288v7q0 31 -11 64.5t-29.5 64.5t-44 54.5t-52.5 35.5q-197 88 -254 88q-100 0 -157 -51q-47 -41 -101 -131q-225 -379 -225 -766z" />
<glyph unicode="H" horiz-adv-x="1038" d="M-39 510q0 -55 70 -55h65l-4 -56q-6 -84 -6 -139q0 -80 6 -119l17 -108q14 -39 79 -39q18 0 50 6q-27 109 -27 225q0 39 2 82t6 90q43 -16 191 -127q154 -115 213 -174q43 -45 84 -86t61 -41q43 0 115 43q-76 94 -76 258v27q0 16 2 37q2 27 2 41v22q2 20 2 39v41 q2 16 2 25v8q51 4 85 7t50 3q41 10 66 12q63 19 63 52q0 41 -49 41q-29 0 -55 -15q-23 2 -60.5 3t-89.5 5l29 199q35 244 49 318l-2 -2q6 18 9 28t5 15v-2q4 12 6.5 21t4.5 13q20 47 20 76q0 41 -38 71.5t-85 30.5q-78 0 -78 -65q0 -23 9 -53l-39 -512q-4 -43 -6 -72t-4 -45 q-2 -4 -3 -25l-270 -6q-45 -2 -74 -2h-39q-70 0 -75 2q2 80 30 269q25 174 25 270q0 84 -35 116.5t-137 43.5q18 -78 18 -156q0 -92 -11 -230.5t-34 -330.5q-27 -4 -44 -6t-27 -4q-68 -16 -68 -70zM225 496q0 12 64 14v8q37 -10 172 -10q176 0 237 -6l2 -352 q-82 99 -182 169q-23 16 -29 19v-2q-115 76 -178 117v-2q-51 27 -66.5 35t-19.5 10z" />
<glyph unicode="I" horiz-adv-x="583" d="M-47 10q4 -41 201 -41q43 0 92 4t106 13q154 18 183 55q0 55 -121 55l-109 -4q-2 43 -3 79t-1 65q0 123 6 251.5t17 270.5q25 309 63 442l182 33q10 2 32 10t56 25l9 26q-12 31 -43 31l-80 2h-82q-23 0 -114 -9t-251 -26q-59 -33 -116 -90q72 -4 130 -7t103 -3l-14 -444 l-13 -277q-4 -90 -6 -158.5t-2 -117.5l6 -74q2 -20 3 -30.5t1 -14.5l-118 -15q-119 -14 -117 -51z" />
<glyph unicode="J" horiz-adv-x="698" d="M-57 291q0 -96 200 -199q180 -92 297 -92q119 0 158 137q16 61 16 217v52t-2 63q-2 68 -3 124t-1 103q0 31 4 95.5t13 162.5q8 96 15 168t13 119q2 20 0 31h17q0 76 -127 76q-74 0 -74 -68q0 -8 6 -29q14 -35 14 -49l5 -276v-35v-29q0 -18 2 -49v-102v-166 q0 -188 -15 -254q-31 -170 -143 -170q-66 0 -135 55q-23 27 -47.5 52.5t-46.5 52.5q-73 73 -106 73h-1q-59 0 -59 -57v-6z" />
<glyph unicode="K" horiz-adv-x="919" d="M-31 510q25 -47 86 -90v-43v-35q-2 -10 -2 -20v-13v-123q0 -186 99 -186q55 0 55 41q-27 29 -29 111q-2 20 -2 69v131q141 -76 268 -138t244 -112q160 -67 181 -67h1q31 0 60 41l-2 -2q8 8 20.5 21.5t16.5 17.5q-2 18 -66 37q-14 4 -29.5 7t-31.5 7q-86 2 -373 153 q-285 154 -285 220q12 4 131 81q190 125 369 277l63 53q45 39 74 63.5t39 39.5q94 84 148 176l2 12q-2 33 -27 66.5t-53 33.5q-119 -242 -588 -565q-53 -35 -91 -59.5t-61 -38.5l23 233l27 203q8 63 12 113.5t4 89.5h18q0 84 -69 84q-37 0 -107 -111l8 -164v-28 q0 -47 -3 -104.5t-11 -127.5q-18 -176 -18 -252q-33 -16 -53.5 -26.5t-30.5 -16.5z" />
<glyph unicode="L" horiz-adv-x="1337" d="M-20 362q0 -162 131 -286q131 -125 295 -125q182 0 278 90q31 27 74 111q84 -51 166 -103.5t168 -105.5h-2q158 -102 251 -103q70 0 93 43l-15 29h-22q-121 0 -375 180q-195 137 -227 160q29 158 45 266.5t20 169.5q236 100 346 221q76 82 76 142q0 68 -20 106v-2 q-16 27 -26.5 46.5t-18.5 29.5q-8 12 -11 18l2 -2q-113 193 -217 193q-66 0 -117 -82q-29 -45 -51 -107.5t-37 -144.5l-65 -363q-57 -26 -137 -26h-6q-39 0 -68 22q-39 -39 -39 -63q0 -51 104 -51q12 0 33 3l49 7h-2q14 2 33 5t23 3q-4 -195 -25 -311q-98 45 -158.5 71.5 t-85.5 34.5q-186 66 -329 66q-25 0 -48.5 -12.5t-43 -33t-30.5 -46t-11 -50.5zM102 360q0 43 76 43q215 0 484 -184q-4 -76 -62.5 -126t-136.5 -50q-113 0 -238 102q-123 100 -123 215zM874 801q76 499 160 499q51 0 78 -81q25 -66 25 -125q0 -184 -263 -293z" />
<glyph unicode="M" horiz-adv-x="1505" d="M-168 33q86 -111 193 -111q291 0 503 699q53 176 74 225q33 -262 37 -271q8 -53 11 -87.5t5 -51.5q70 -436 230 -436q131 0 260 430q45 154 73.5 256t45.5 156v-27q0 -23 -1 -59.5t-3 -83.5t-3 -84v-58q0 -190 37 -389q59 -311 189 -311q31 0 59 55l-12 27 q-141 39 -141 524q0 135 24 418q27 315 60 389q-10 74 -195 74q-39 -14 -43 -94q-2 -53 -3 -87t-1 -46q-49 -256 -160 -580q-127 -369 -170 -369q-66 0 -110 291q-20 123 -29.5 262.5t-9.5 298.5q0 223 24 285q-98 74 -145 74q-80 0 -80 -109q0 -215 -98 -534 q-90 -299 -207 -506q-43 -78 -92 -115v2q-63 -57 -119 -57q-23 0 -64 6t-100 20z" />
<glyph unicode="N" horiz-adv-x="1056" d="M-92 37q0 -82 143 -82q172 0 256 209q59 158 96 424q27 190 42.5 297.5t21.5 136.5q80 -498 174 -764h-2q51 -156 68 -186v2q51 -80 143 -80q108 0 108 60q0 3 -1 11.5t-3 24.5v-2q-4 27 -6 35q0 129 7.5 275.5t21.5 312.5q16 174 36.5 317t47.5 260l-2 -2q0 2 12 25 q25 57 25 69q0 43 -68 54q-92 -123 -119 -414q-23 -223 -34 -354t-13 -172l-12 -269q-2 -88 -19 -88q-61 0 -137 332q-82 348 -82 860q0 92 -123 92q-53 0 -98 -67q2 -2 2 -35q0 -80 -15.5 -219t-43.5 -340q-109 -719 -320 -719q-18 0 -30 4q0 -2 16 14q-29 29 -47 29 q-45 0 -45 -51z" />
<glyph unicode="O" horiz-adv-x="851" d="M0 489q0 -207 94 -350q111 -164 307 -164q254 0 369 344q74 224 74 541q0 543 -408 567q-14 0 -28 -6q-25 12 -43 13q-51 0 -103 -68q-262 -348 -262 -877zM143 494q0 240 88 503q109 330 246 330q147 0 211 -168q45 -115 45 -289q0 -796 -345 -796h-1q-244 0 -244 420z " />
<glyph unicode="P" horiz-adv-x="976" d="M-33 1143q0 -14 3 -35l7 -49q41 45 91 67q66 33 122 45l-12 -213q-12 -213 -12 -350v-33l-37 -10l-14 -78q27 -8 45 -8q0 -135 3 -223t7 -129q4 -35 9 -57.5t14 -36.5q20 -39 86 -39q18 0 22 2q10 2 30.5 3t49.5 1q-100 60 -100 215v18l8 267q289 55 510 170 q323 170 323 420q0 147 -133 227q-109 67 -263 67h-5q-74 0 -162 -11t-192 -34q-2 82 -82 82h-9q-45 0 -75 -30l-8 -88q-184 -53 -201 -78h2q-27 -27 -27 -82zM291 604l18 279q8 131 18.5 214t20.5 120q20 2 31 6q41 8 66.5 13t39.5 9q199 35 277 35q217 0 217 -145 q0 -172 -184 -322q-84 -68 -265 -135q-96 -35 -239 -74z" />
<glyph unicode="Q" horiz-adv-x="808" d="M0 588q0 -434 197 -584q-23 -8 -40.5 -14t-33.5 -13q-78 -31 -78 -81q0 -43 33 -43q16 0 47 24h-2q29 16 39 19q89 26 239 26h11q29 0 71.5 -4t102.5 -12q59 -8 102 -12.5t72 -4.5q23 0 39 17l22 80q-39 -20 -53 -21q-86 0 -197 35q147 102 205 412q23 117 34 224.5 t11 207.5q0 203 -18 274q-27 109 -164 205q-133 96 -250 96h-4q-106 0 -176 -80q-35 -37 -94 -188q-115 -295 -115 -563zM139 506q0 317 119 592q47 109 86 151h-2q49 51 123 51q35 0 55 -14q16 -14 28.5 -24.5t22.5 -18.5q55 -29 60 -35q55 -109 55 -428q0 -242 -53 -444 q-80 -295 -244 -295q-250 0 -250 465z" />
<glyph unicode="R" horiz-adv-x="1107" d="M-39 1026q0 -61 43 -61q18 0 47 28q-18 27 -18 19q0 12 98 59q102 47 129 53q0 -16 -2 -38.5t-6 -55.5q-6 -66 -6 -96q0 -49 -3 -157.5t-12 -280.5q-4 -106 -6 -200.5t-2 -180.5v-56q0 -47 19 -73v2q27 -55 69 -56q31 0 47 48q-10 66 -16 121t-6 100v6v43t2 61 q2 35 3 61.5t1 43.5q8 86 18 86q8 0 64 -78q186 -213 272 -283h-2q174 -141 346 -141q45 23 70 38t33 19q0 45 -31 45q-6 0 -70 -18q-74 0 -180 66q-88 53 -151 122q-41 45 -113 144q-55 76 -80 129q86 25 198.5 75t256.5 125q78 41 172 140q115 120 115 188q0 137 -138 213 q-115 66 -248 66q-125 0 -475 -62q-12 37 -36.5 52.5t-94.5 27.5q-6 -25 -6 -59v-62q-2 -6 -2 -10l-147 -68q-152 -72 -152 -145zM358 618q0 10 3.5 52.5t11.5 115.5q25 272 30 379q293 84 476 84q217 0 217 -135q0 -104 -111 -211q-90 -90 -203 -145q-39 -18 -91 -39 t-118 -43q-70 -23 -123 -38t-92 -20z" />
<glyph unicode="S" horiz-adv-x="839" d="M-47 139q0 -49 51 -76q211 -114 505 -114h5q102 0 195 41q114 53 114 155q0 135 -170 207l-350 150q-51 23 -85 76t-34 112q0 123 88 344q94 246 181 246q55 0 104 -78q39 -66 49 -129q18 -152 19 -315q0 -86 63 -86t64 139q0 53 -3.5 116.5t-7.5 139.5q-10 125 -112 219 q-102 98 -226 98q-117 0 -198 -172q-164 -340 -164 -522q0 -193 147 -256l449 -196q43 -18 43 -78q0 -104 -191 -105q-137 0 -311 43q-115 27 -121 33q-35 37 -59 59q-45 -14 -45 -51z" />
<glyph unicode="T" horiz-adv-x="1107" d="M-31 1087q0 -180 230 -180q68 0 147.5 12.5t173.5 34.5q59 16 125 127q-224 -69 -417 -69h-5q-160 0 -160 43q0 66 431 100q51 4 90 6t67 2h29q0 -18 2 -26v-31q0 -68 -8 -184.5t-25 -284.5q-14 -147 -21 -266t-7 -211q0 -119 43 -164q51 -25 94 -29q-18 119 -19 185v22 q0 152 62 635q20 150 32.5 243t18.5 128q268 24 519 24h20q61 0 61 49v7q0 49 -74 49q-78 0 -193.5 -3t-269.5 -12q-207 -10 -351 -20t-230 -21l-256 -32q-109 -31 -109 -134z" />
<glyph unicode="U" horiz-adv-x="1071" d="M-68 950q94 -100 156 -100q72 0 191 82q-63 -274 -64 -449q0 -508 328 -508q125 0 219 131q16 23 37.5 63t50.5 97q6 -174 8 -180q16 -170 94 -170q35 0 76 31q-57 39 -57 207v198l63 623q2 16 7.5 41.5t15.5 60.5q18 68 35 90l-5 25q-90 72 -135 72q-39 0 -57 -37 q0 -29 6 -47v2q8 -31 8 -129q0 -256 -75 -539q-20 -72 -45 -139.5t-56 -128.5q-88 -180 -190 -180q-121 0 -168 139h2q-27 88 -27 262q0 334 146 690q2 4 5 9t11 14l23 26q37 43 36 66q0 49 -133 90q-190 -424 -415 -424q-20 0 -91 12z" />
<glyph unicode="V" horiz-adv-x="1085" d="M-37 727q0 -59 39 -59q25 0 39 57q10 35 15 55.5t7 28.5q20 74 150 262q129 186 195 186q43 0 43 -118q0 -82 -25 -328q-10 -104 -15 -186t-5 -146q0 -184 53 -338q76 -211 246 -211q184 0 292 471q93 408 93 887q0 109 -60 109q-20 0 -59 -31q18 -29 18 -35v2q0 -4 2 -8 v-6q-2 -4 -2 -8v-6q-2 -10 -2 -19q0 -373 -86 -780q-98 -467 -215 -467q-68 0 -111 149q-34 125 -34 222v6q0 117 24 354q14 119 20.5 208t6.5 148q0 84 -53 162q-59 86 -140 86q-129 0 -276 -235q-160 -262 -160 -412z" />
<glyph unicode="W" horiz-adv-x="1105" d="M0 641q0 -700 274 -700q152 0 228 321q45 -139 73 -188q63 -98 162 -99q207 0 303 453q62 288 62 616q0 256 -33 314v-2q-23 43 -61 43q-41 0 -41 -39q0 -23 12 -55q12 -35 12 -37l4 -152q2 -53 2 -92v-61q-2 -96 -19 -220.5t-52 -279.5q-86 -397 -193 -397 q-68 0 -104 159q-29 131 -29 234q0 584 82 665q-49 59 -109 60q-31 0 -88 -23q0 -8 1 -22.5t3.5 -27.5t3.5 -23l1 -11q-10 -422 -50 -676q-14 -98 -61 -206q-59 -139 -119 -140q-70 0 -110 183q-14 66 -21.5 130t-7.5 130q0 252 18 430q2 29 35 147q25 88 25 152 q0 35 -38 64.5t-79 29.5q-66 0 -66 -90q0 -25 7 -49q-14 -188 -20.5 -322.5t-6.5 -218.5z" />
<glyph unicode="X" horiz-adv-x="980" d="M0 733q0 -80 55 -80q43 0 43 47q0 8 -10 45v7q0 74 76 233q86 186 164 186q43 0 84 -135q20 -72 73 -372q-4 -18 -48 -90t-126 -199q-178 -274 -178 -346q0 -82 125 -90l-10 84q2 74 278 497q47 -160 91.5 -270.5t84.5 -175.5q104 -162 250 -162q18 0 35 4v-2q10 10 10 6 q18 18 19 60q-104 4 -156 65l2 -2q-23 41 -42 81t-40 77q-70 129 -149 473q29 55 114 163.5t226 274.5h-2l71 78q57 59 58 96q0 23 -41 45q-113 -94 -225.5 -220t-229.5 -288q-23 111 -41 183.5t-35 107.5q-74 164 -221 164q-119 0 -219 -203q-86 -176 -86 -342z" />
<glyph unicode="Y" horiz-adv-x="788" d="M-111 -317q0 -78 201 -156q172 -66 258 -66q168 0 281 174q100 156 100 328q0 68 -12 256q-4 63 -6 127t-2 129q0 313 30 516q10 68 25.5 142.5t38.5 156.5v6q0 70 -88 70h-6q-66 0 -68 -55q-25 -420 -37 -531q-39 -324 -129 -512q-90 -184 -188 -184q-139 0 -140 336 q0 160 14.5 323.5t43.5 331.5q2 10 3 17.5t1 11.5l-2 -4q4 10 5 18t3 12q8 33 8 35q6 27 6 39q-92 80 -114 80q-55 0 -56 -84q0 -6 1 -18.5t1 -24.5t1 -21.5t1 -11.5q0 -104 -24 -352q-10 -104 -15.5 -192t-5.5 -164q0 -416 285 -416q133 0 221 162q27 51 68 172 q4 -84 6 -138.5t2 -80.5q0 -559 -324 -559q-63 0 -182 92q-121 92 -135 92q-70 0 -70 -57z" />
<glyph unicode="Z" horiz-adv-x="917" d="M-39 72q0 -47 25 -80q29 -47 80 -47q41 0 104 20q12 4 16 6q76 20 88 21l199 26q72 10 125 15.5t88 5.5q12 0 29.5 -2t37 -4t37 -4t29.5 -2q68 0 68 51q0 43 -139 61q-90 12 -162 13q-37 0 -92.5 -6.5t-126.5 -20.5q-145 -25 -217 -25q-39 0 -56 4q0 29 115 187 q47 63 85 111.5t66 80.5q453 502 510 531l11 6q84 41 84 84q0 74 -55.5 123t-131.5 49q-102 0 -393 -55q-141 -27 -211 -50q-115 -37 -115 -102q0 -51 84 -51v20q0 12 47 29q252 72 502 72q51 0 51 -6q0 -12 -157 -195l-301 -346h2q-53 -63 -101.5 -126t-93.5 -128 q-131 -195 -131 -266z" />
<glyph unicode="[" horiz-adv-x="536" d="M139 1317l11 -297q4 -137 7 -246.5t3 -195.5v-746q0 -41 49 -41q55 0 121 14q51 4 81.5 7.5t41.5 3.5q61 -1 61 65q0 41 -51 41q-6 0 -18.5 -1t-28 -3t-28.5 -3t-19 -1q-10 0 -23.5 -2t-19.5 -2q-10 0 -13 2q-20 2 -26 6q-33 158 -33 660v489q0 39 4 84t12 96 q49 16 99 17q4 -2 15 -5.5t32 -9.5q23 -8 39 -8q12 0 24 12v-2q25 25 25 76q0 47 -51 47h-215q-98 0 -99 -57z" />
<glyph unicode="\" horiz-adv-x="178" d="M6 33q0 -33 57 -33q59 0 142 260q72 233 71 299q0 47 -32 47q-27 0 -43 -59q-20 -84 -38 -149.5t-32 -116.5q-59 -197 -78 -197l-12 -6q-2 -2 -8 -2h2q-29 -16 -29 -43z" />
<glyph unicode="]" horiz-adv-x="499" d="M72 1300q0 -43 51 -43q-6 0 6 1.5t41 3.5q59 4 78 6q4 0 6 2h8q10 -2 19.5 -4t19.5 -6q31 -195 31 -664q0 -319 14 -365h-12q-2 -94 -6 -168.5t-15 -130.5q-53 -16 -96 -16q-6 2 -18.5 5t-30.5 9q-23 8 -37 9q-12 0 -25 -13v2q-25 -25 -24 -75q0 -47 51 -48h215 q98 1 98 58l-10 291q-4 139 -7 248.5t-3 193.5l-2 752q0 41 -47 41q-41 0 -123 -13q-80 -12 -121 -12q-61 0 -61 -64z" />
<glyph unicode="^" horiz-adv-x="591" d="M121 784q0 -88 33 -88q29 0 45 31l73 215q8 25 13.5 41t9.5 27q20 61 43 106q6 25 8 27q12 39 16 39q37 -135 97 -269q88 -193 133 -192q37 0 37 39q0 25 -13 53q-10 23 -24 62.5t-35 95.5q-31 88 -52.5 150.5t-35.5 101.5q-8 70 -45 108h-27q-90 0 -133 -78h2 q-25 -39 -55 -170v2q-14 -39 -28.5 -75.5t-28.5 -73.5q-33 -96 -33 -152z" />
<glyph unicode="_" horiz-adv-x="985" d="M0 -76v-86h1030v86h-1030z" />
<glyph unicode="`" horiz-adv-x="401" d="M-10 991q0 -35 51 -65h-2q12 -2 35 -19l88 -51l20 23q12 18 13 32q0 14 -89 103v-2q-23 35 -57 35q-2 0 -18 -5l2 2q-43 -12 -43 -53z" />
<glyph unicode="a" d="M-41 238q0 -272 121 -273q82 0 131 133q45 -98 115 -98q76 0 157 266q72 233 72 299q0 49 -35 49q-31 0 -47 -59q-106 -463 -158 -463q-36 0 -36 115v6v18q0 147 67 363l-76 24l-30 64q-27 57 -125 57q-55 0 -113 -217q-43 -170 -43 -258v-26zM51 131q0 172 31 287 q14 51 22.5 82.5t12.5 42.5l4 12q27 80 41 80q18 0 28 -78l21 -31l-21 -170q-4 -29 -14 -68.5t-26 -92.5q-37 -121 -66 -144q-33 8 -33 80z" />
<glyph unicode="b" horiz-adv-x="462" d="M0 96q0 -31 19.5 -58.5t41.5 -27.5q18 0 35 23q37 -78 88 -78q96 0 148 254q16 88 25.5 166.5t9.5 150.5q0 199 -134 199q-76 0 -116 -133q10 86 26.5 208t42.5 281q4 23 10.5 53.5t14.5 65.5v-2q12 51 12 76q0 69 -61 69h-2h-8q-43 0 -58 -36q2 -2 2 -27q0 -12 -1 -27.5 t-3 -31.5l-51 -430q-37 -311 -37 -631v-45q-4 -18 -4 -19zM109 141q2 82 49 277q51 217 90 217q22 -1 22 -146q0 -160 -41 -323q-29 -109 -55 -109q-14 0 -22 21q-16 31 -43 63z" />
<glyph unicode="c" horiz-adv-x="309" d="M-14 291q0 -295 168 -295q84 0 155 172q29 70 68 229q16 70 25.5 110t9.5 54q0 53 -35 53q-29 0 -43 -43h2q-6 -29 -10 -49t-9 -33q-88 -401 -180 -401q-55 0 -55 131q0 256 61 359q33 -27 64 -27q51 0 51 67q0 35 -37 82t-71 48q-78 0 -127 -183q-37 -145 -37 -274z" />
<glyph unicode="d" horiz-adv-x="479" d="M-33 201q0 -84 27 -144q33 -80 106 -80q55 0 109 97q10 20 17 35.5t12 29.5q31 -139 118 -139q61 0 152 270q76 229 76 310q0 49 -35 49q-31 0 -45 -62q-10 -47 -28.5 -110.5t-41.5 -143.5q-63 -211 -88 -225q-16 6 -22 59q-2 16 -3.5 34t-1.5 36q0 23 8.5 106t24.5 224 l21 176q20 186 24 197l47 245q18 92 25 142q0 6 2 10v10q0 61 -59 62q-18 0 -39 -5q-33 -8 -33 -59q0 -6 2 -8v-8q-16 -121 -26.5 -202t-16.5 -126q-10 -78 -17.5 -132t-11.5 -89q-6 6 -10 9t-6 5q-41 35 -72 35q-90 0 -159 -240q-55 -195 -56 -368zM70 244q0 90 43 250 q49 182 98 182q39 0 39 -70q0 -8 -4 -52t-13 -122v-24q-23 -98 -61 -203q-53 -135 -80 -135q-22 0 -22 160v14z" />
<glyph unicode="e" horiz-adv-x="358" d="M-8 252q0 -104 39 -180q49 -92 143 -92q106 0 182 186q33 74 78 272q27 106 27 133q0 43 -43 43q-20 0 -53 -125q-115 -430 -187 -430q-23 0 -47 35q-29 29 -29 60q16 29 36 64.5t40 80.5q84 186 84 332q0 47 -39 83t-88 36q-86 0 -123 -228q-10 -70 -15 -137.5 t-5 -132.5zM92 285q8 174 68 358q2 8 6 12q8 0 8 -47q0 -68 -37 -198q-10 -39 -21.5 -71t-23.5 -54z" />
<glyph unicode="f" horiz-adv-x="333" d="M-20 -313v-27q0 -375 161 -375q49 0 64 27q65 119 65 395v8q0 137 -49 357q37 14 66 39h-2q51 49 73 139q20 82 32.5 131t17.5 68q28 110 28 137q0 49 -37 49q-29 0 -37 -43v2q-29 -123 -50 -203t-36 -121v2q-41 -115 -79 -116q-16 41 -24.5 62.5t-10.5 25.5h2 q-29 53 -70 67q10 168 36 370t65 441q18 113 69 189q-41 41 -82 41q-51 0 -78 -25q-63 -459 -93.5 -866.5t-30.5 -773.5zM72 -317q0 70 4 175t12 246q16 -16 27.5 -25t19.5 -13q55 -152 55 -392q0 -66 -18 -172q-23 -127 -41 -127q-20 0 -45 131v-2q-8 53 -11 98.5t-3 80.5z " />
<glyph unicode="g" horiz-adv-x="454" d="M-297 -453q0 -137 102 -229v2q109 -96 232 -96q178 0 242 149q43 100 43 303q0 12 -1.5 35t-1.5 45q0 23 -1 45.5t-1 34.5q6 -6 146 -6q51 -23 76 -23q63 0 63 56q0 71 -103 71h-3q-84 0 -185 -12q-12 125 -12 195q0 287 109 487q-66 20 -136 105v-2q-74 90 -122 90 q-70 0 -136 -250q-55 -225 -55 -363q0 -88 31 -149q37 -80 114 -80q51 0 99 84l1 -11q1 -10 3 -32q4 -35 5 -57.5t3 -34.5q-59 -16 -95 -26.5t-50 -14.5q-367 -133 -367 -316zM-199 -471q0 141 260 254q55 24 154 24h8q4 -53 6 -90t2 -55q0 -338 -211 -338q-82 0 -149 62 q-70 61 -70 143zM61 147q0 145 56 347q43 156 49 172q84 0 84 -111q0 -90 -51 -287q-57 -229 -109 -229q-29 0 -29 108z" />
<glyph unicode="h" horiz-adv-x="524" d="M10 324q0 -338 96 -338q23 0 44 14q39 166 65.5 282.5t42.5 184.5q2 -78 3 -129t1 -78q8 -240 144 -240q61 0 102 97q10 23 23.5 70.5t33.5 123.5q66 252 66 273q0 45 -37 45q-33 0 -45 -60q-10 -45 -21.5 -89t-23.5 -91q-72 -256 -109 -256q-41 0 -41 141q0 188 54 480 q-77 65 -104 65h-1q-45 0 -57 -69q-53 -289 -125 -521q-2 41 -6 58q-2 33 -37 32h33q0 135 22.5 348.5t67.5 512.5q2 14 6 32.5t10 42.5v-2q16 61 16 93q0 55 -57 55h-6q-53 0 -76 -47q2 -18 3 -32.5t1 -25.5q0 -82 -11 -203.5t-34 -283.5q-43 -324 -43 -485z" />
<glyph unicode="i" horiz-adv-x="241" d="M-6 217q0 -215 119 -215q63 0 104 98q14 39 62 197q65 228 65 281q0 49 -35 49q-31 0 -45 -64q-25 -106 -43 -174l-57 -196q-29 -92 -49 -93q-35 0 -35 113q0 63 9 138t26 165l24 121q0 49 -65 49q-31 0 -56 -27q0 -74 -12 -221t-12 -221zM35 1108q0 -39 27.5 -70.5 t64.5 -31.5q63 0 63 94q0 92 -79 92q-25 0 -50.5 -28.5t-25.5 -55.5z" />
<glyph unicode="j" horiz-adv-x="266" d="M-510 -451q0 -127 123 -213q105 -75 232 -75h3q119 0 195 94q74 92 74 197v6l-13 313h11q6 2 12 2q43 6 51 6q68 0 107 -39q20 -31 49 -30q26 33 26 53q0 49 -63 82q-39 20 -92 20l-66 -6q-4 0 -15 -1t-28 -3q-2 10 -2 33v55q0 76 3 149.5t12 145.5q18 190 55 280 q0 51 -60 52q-31 0 -100 -21l12 -31q0 -6 4 -22v-6q0 -35 -4 -95.5t-12 -148.5q-8 -95 -8 -172q0 -38 2 -72l6 -153q-315 -82 -424 -225l2 2q-20 -23 -33.5 -41.5t-23.5 -30.5q-35 -47 -35 -105zM-416 -465q0 117 260 252q51 27 91 42t69 24l6 -299v-5q0 -86 -50 -140 t-132 -54t-160 47q-84 53 -84 133zM35 1108q0 -39 27.5 -70.5t64.5 -31.5q63 0 63 94q0 92 -79 92q-25 0 -50.5 -28.5t-25.5 -55.5z" />
<glyph unicode="k" horiz-adv-x="499" d="M-4 182q0 -211 63 -211q49 0 50 47q0 27 -13 64q4 45 6 71.5t4 36.5q27 16 43.5 28.5t24.5 19.5q33 -133 37 -138q43 -100 139 -100q88 0 154 195q16 57 28.5 94.5t18.5 60.5q53 172 53 236q0 43 -35 43q-29 0 -45 -47q-4 -18 -7 -37t-7 -37v2q-109 -416 -168 -416 q-39 0 -59 80q-14 55 -15 111q0 8 1 21t3 32q33 55 53.5 90t28.5 49q53 90 54 187q0 49 -34 84.5t-83 35.5q-63 0 -123 -127q-37 -80 -62 -141q4 70 13.5 148.5t19.5 169.5l29 215q41 180 41 233q0 37 -22.5 64.5t-57.5 27.5q-59 0 -59 -92q0 -10 1 -20.5t3 -20.5 q-4 -170 -43 -528q-16 -174 -25.5 -306.5t-9.5 -224.5zM129 305q6 39 70 203q70 186 100 186h1q11 0 11 -22q0 -70 -73 -219q-61 -125 -109 -148z" />
<glyph unicode="l" horiz-adv-x="374" d="M0 377q0 -133 41 -246q57 -156 170 -156q94 0 190 287q78 244 78 318q0 49 -37 49q-31 0 -43 -58v2q-8 -33 -13 -57t-9 -45l2 2q0 -8 -8 -16q-100 -377 -156 -377q-25 0 -61 51q-57 76 -58 215q0 16 13 33q4 12 10 14q4 8 8 15.5t6 11.5v-2q45 68 82 159t70 207 q61 223 61 394q0 219 -143 219q-74 0 -84 -152l2 2q-121 -381 -121 -870zM102 561q14 254 140 684q8 -31 8 -123q0 -111 -57 -303q-23 -72 -45.5 -136.5t-45.5 -121.5z" />
<glyph unicode="m" horiz-adv-x="815" d="M18 496q0 -10 2 -17v-20l17 -45q0 -20 -1 -49t-3 -70t-2 -70v-49q0 -203 82 -203q74 0 118 144q16 72 30.5 134t27.5 116q10 47 16 73.5t8 32.5q-18 -350 -18 -340q0 -133 88 -133q63 0 109 119q14 37 25 71.5t22 69.5v-53q0 -20 2 -31q16 -176 118 -176q82 0 144 154 q121 313 121 413q0 43 -37 43q-29 0 -41 -39q-12 -37 -12 -51v4q-29 -109 -48.5 -174t-27.5 -90q-59 -166 -99 -166q-26 0 -26 118v9q0 133 53 387q-66 41 -100 41q-55 0 -62 -39q0 -4 2 -6v-8q0 -41 -53 -236q-61 -217 -88 -217v74q0 55 5 119.5t16 140.5q0 152 -78 152 t-127 -195q-4 -6 -31 -155q-18 -98 -41 -148q-2 23 -3 49.5t-1 57.5q0 23 3 58.5t11 82.5t11.5 83t3.5 58q0 94 -70 94q-66 0 -66 -118z" />
<glyph unicode="n" horiz-adv-x="544" d="M20 514l19 -37l-6 -65q-2 -23 -3 -41.5t-1 -34.5q0 -4 1 -25.5t3 -58.5l8 -148q16 -96 92 -96q55 0 78 98q16 66 32.5 130.5t35.5 130.5q4 -80 10 -133.5t10 -79.5q31 -154 117 -154q70 0 166 295q67 211 67 270q0 47 -35 47t-49 -75q-10 -41 -26.5 -100.5t-38.5 -135.5 q-57 -192 -92 -192t-35 190q0 20 5 80.5t15 163.5q5 49 5 79q0 22 -3 33h19q0 72 -123 82q-35 -25 -41 -114q-4 -63 -20.5 -137t-45.5 -160l2 2q-27 -80 -43 -152v2q-10 -29 -6 -37q-10 10 -10 121v43t2 62t2 61v43q0 4 3 17.5t7 39.5q14 35 15 56q0 55 -58 55 q-51 0 -65 -45v2q-10 -29 -13 -82z" />
<glyph unicode="o" horiz-adv-x="473" d="M0 293q0 -307 160 -307q66 0 110 69h-2q20 37 56 135q2 10 3 14.5t1 6.5q8 47 12 57q31 -14 51 -14q86 0 141 125q46 99 46 201q0 37 -37 36q-33 0 -41 -51q-25 -121 -39 -149q-25 -66 -82 -66q-14 0 -29 12q0 221 -18 277q-14 51 -76 100q-57 45 -115 45q-63 0 -84 -82 l-6 -22q-4 -20 -6 -32.5t-4 -20.5q-8 -8 -14 -35q0 -23 2 -36l2 -13q-31 -80 -31 -250zM102 268q0 37 6.5 95.5t20.5 136.5q31 172 55 172q41 0 41 -49q0 2 -1 -8.5t-3 -32.5q-2 -6 -2 -43q0 -23 3 -54.5t11 -72.5t12.5 -71t4.5 -50q0 -47 -43 -148q-29 -66 -39 -65 q-66 0 -66 190z" />
<glyph unicode="p" horiz-adv-x="487" d="M-49 -379q0 -256 80 -256q45 0 45 33q-33 68 -33 227q0 111 7 213.5t22 200.5q6 -8 9 -13.5t5 -9.5q33 -45 78 -45q135 0 190 248q33 144 33 334q0 100 -29 152q-39 63 -135 63q-39 0 -90 -125q-6 -16 -10 -26.5t-6 -14.5v23q0 8 2 33.5t2 31.5q0 76 -53 76 q-49 0 -50 -45q0 -12 11 -29v-16q0 -82 -9.5 -207t-25.5 -293q-43 -391 -43 -555zM96 217q4 86 86 315q18 51 25 74q12 37 14 39q15 39 29 39q43 0 43 -135v-64q0 -27 -2 -32v-27q0 -84 -33 -209l-2 -10q-41 -152 -90 -152q-18 0 -33.5 25.5t-15.5 52.5q4 0 4 10 q12 14 12 27q0 25 -37 47z" />
<glyph unicode="q" horiz-adv-x="421" d="M-31 166q0 -190 131 -191q63 0 101 80q20 45 37 101q8 -111 13 -178.5t7 -92.5q10 -104 16.5 -197.5t10.5 -179.5l2 5q-4 -16 -4 -25q0 -61 69 -61q63 0 64 36v35q-35 123 -35 133q0 14 43 168q57 213 104 322l-16 29h-8q-25 0 -35 -20.5t-18 -41.5q-35 -92 -57.5 -154.5 t-33.5 -97.5q-14 145 -21 272.5t-7 237.5q0 20 1 49t3 68q6 80 6 119l-2 -9q4 16 4 21q0 29 -22.5 58.5t-47.5 29.5q-14 0 -28 -14q-46 77 -91 77h-1q-102 0 -154 -260q-31 -164 -31 -319zM63 205q0 160 41 323q27 106 58 107q16 0 22 -12q29 -55 47 -70q-2 -41 -15 -108.5 t-36 -165.5q-53 -215 -88 -216q-29 0 -29 142z" />
<glyph unicode="r" horiz-adv-x="425" d="M-8 381l51 -19q10 27 14 31q8 31 13 35v-4q29 96 45 182q57 -39 57 -63l-4 -156q-2 -39 -2 -65v-39v-37q0 -20 2 -43q2 -98 20 -129q45 -74 117 -74q61 0 150 266q75 224 75 303q0 49 -32 49q-39 0 -47 -61q-4 -39 -22.5 -104.5t-49.5 -163.5q-66 -203 -86 -203 q-35 0 -35 74q0 33 3 80t11 110q8 66 11.5 114t3.5 81q0 66 -90 119q-72 41 -72 45l4 61v6q2 6 2 41v14q0 80 -59 80q-66 0 -66 -116q0 -29 14 -72q16 -49 17 -64q0 -23 -6 -57.5t-17 -81.5q-23 -96 -22 -139z" />
<glyph unicode="s" horiz-adv-x="294" d="M-45 266q23 -2 32 -3t5 -1q45 0 88 189q16 -47 18 -64q35 -143 35 -201q0 -131 -63 -131q-29 0 -50 56q0 49 -28 49q-29 -6 -29 -60q0 -25 12.5 -47t31 -40.5t43 -29t48.5 -10.5q133 0 133 207q0 66 -45 226q-41 152 -41 223q0 16 8.5 50t8.5 52q0 57 -70 57 q-63 0 -63 -71q0 -135 -74 -451z" />
<glyph unicode="t" horiz-adv-x="286" d="M-246 975q0 -29 33 -41q23 -10 43 -33l57 19q70 -2 111 -2q39 0 53 -3q-23 -246 -35 -385t-12 -174q0 -109 21 -188q37 -150 120 -150q92 0 181 273q69 206 69 282q0 53 -39 54q-29 0 -53 -107q-88 -395 -151 -395q-27 0 -37 102q-2 27 -3 81t-1 141q0 78 11 194.5 t34 271.5l77 -2q39 -2 82 -2h91q31 0 114 15q92 14 111 32l4 13v33q-135 4 -209 5t-86 3q-23 2 -53 2h-70h-39q8 35 13.5 59.5t6.5 38.5v55q-72 47 -98 47q-31 0 -43 -34l9 -39q-2 -72 -3.5 -102.5t-1.5 -20.5v-2q-78 -4 -143 -6t-121 -2q-43 0 -43 -33z" />
<glyph unicode="u" horiz-adv-x="530" d="M14 166q0 -68 27 -119q33 -61 94 -61t96 53q12 27 24.5 53.5t25.5 52.5l20 -51v2q39 -76 90 -76q94 0 180 273q66 213 66 278q0 43 -35 43q-29 0 -43 -43q-16 -63 -33.5 -124.5t-33.5 -122.5q-59 -201 -95 -201q-37 0 -37 164q0 29 4.5 74t12.5 104v-2q18 125 18 147 q25 63 25 74q0 51 -76 51h-2q-55 0 -55 -65q0 -4 2 -11.5t2 -11.5q0 -76 -21 -176l-37 -184q-23 -104 -61 -181v3q-25 -39 -37 -39q-18 0 -18 65q0 100 6 190.5t20 168.5l-2 -2q4 16 8.5 27t6.5 20v-2q8 18 8 49q0 29 -21.5 51t-48.5 22q-33 0 -51 -28q-29 -47 -29 -465z " />
<glyph unicode="v" horiz-adv-x="415" d="M25 377q0 -358 127 -359q88 0 145 248q47 207 47 309q0 182 -65 183q-31 0 -31 -33h22l-22 -4q6 -23 12 -55v-138q0 -92 -47 -252q-43 -147 -53 -147q-37 0 -37 221q0 16 2 41t6 58q4 35 6 59t2 41q0 78 -73 82h-7q-34 0 -34 -37q0 -4 4 -25v-41q0 -23 -2 -55 q-2 -33 -2 -57v-39z" />
<glyph unicode="w" horiz-adv-x="618" d="M0 231q0 -231 123 -231q70 0 117 139q49 -108 115 -108h1q84 0 115 108l33 195q43 -18 84 -19q59 0 102 111q35 92 35 149q0 41 -35 41q-33 0 -49 -59q-4 -20 -6 -34.5t-4 -22.5q-23 -84 -72 -84q-29 0 -31 14l-8 283q-4 51 -59 80q-45 -23 -53 -84v2q-2 -2 -2 -105 q0 -16 3 -38.5t7 -51.5t7 -51.5t3 -38.5q0 -23 -5 -57.5t-15 -81.5q-35 -164 -54 -164q-18 0 -24 16h2q-14 63 -20.5 108.5t-6.5 71.5q0 16 3 66.5t11 136.5q10 47 15.5 71.5t5.5 22.5q0 55 -64 56q-39 0 -69 -33l8 -35l3 -15t1 -9q0 -18 -2 -46t-6 -63t-6 -62.5t-2 -46.5 q0 -156 -74 -268q-37 12 -37 144q0 236 76 430q-49 49 -78 49q-39 0 -53 -31q-8 -14 -23 -192q-12 -129 -12 -263z" />
<glyph unicode="x" horiz-adv-x="436" d="M27 -63q0 -39 84 -50q10 57 18 96.5t12 59.5l2 14q57 -49 103 -49q125 0 221 275q74 210 74 288q0 47 -39 47q-27 0 -43 -65v2q-10 -37 -13 -61v2q-102 -393 -190 -394q-18 0 -37.5 20.5t-23.5 43.5q25 78 62.5 166t88.5 192q80 160 80 183q0 27 -59 63 q-25 -47 -43.5 -82t-28.5 -57v2q-6 -20 -8 -23q-43 -98 -74 -168.5t-49 -117.5q-2 18 -3 45.5t-1 62.5v39t2 53q2 31 3 53.5t1 38.5q0 115 -68 115q-49 0 -57 -74q-4 -37 -6 -61.5t-4 -36.5l24 -33v-24q0 -74 9.5 -163t29.5 -194q-68 -176 -67 -208z" />
<glyph unicode="y" horiz-adv-x="466" d="M-182 35q0 -35 63 -35q55 0 119 180q0 -39 2 -47q25 -147 135 -147q45 0 80 41q14 20 43 86q8 -49 11 -110.5t5 -133.5q-127 -31 -256 -131q-180 -137 -180 -291q0 -109 70 -178q68 -72 164 -72q307 0 307 477q0 12 -1 31t-2 39t-2 38.5t-1 31.5q75 22 96 22h2 q41 0 111 -14l20 8q10 16 10 31q0 65 -103 65h-3q-29 0 -92 -18q-14 0 -34 -6l-20 -6l-2 63l-6 175v-1v98q0 236 17 301q41 160 41 203q0 45 -45 45h-9q-61 0 -69 -69q-16 -131 -27.5 -221.5t-17.5 -141.5v4q-74 -286 -107 -286t-33 141q0 39 4.5 98.5t12.5 140.5l20 205v6 q0 43 -47 43q-74 0 -74 -153q-10 -57 -27 -125t-44 -146q-66 -190 -86 -190q-45 -20 -45 -51zM-61 -573q0 121 114 225q98 90 230 129v-119q0 -131 -47 -242q-61 -141 -179 -141q-49 0 -83.5 45t-34.5 103z" />
<glyph unicode="z" horiz-adv-x="530" d="M-119 -500q0 -104 78 -178v2q76 -74 176 -74q143 0 221 172q61 137 62 297q0 10 -4 50.5t-13 109.5q14 2 31 3t35 1q53 0 96 -14l12 2q29 16 29 43q0 57 -88 57q-63 0 -137 -12q-59 109 -139 154q166 236 166 512q0 100 -51.5 163.5t-143.5 63.5q-86 0 -143 -137 q-41 -98 -41 -158q0 -51 43 -51q25 0 36 78q8 51 44 104q41 59 88 60q68 0 67 -119q0 -164 -47 -287q-35 -84 -129 -195q-106 0 -106 -69q0 -70 88 -70q31 0 82 39q72 -41 92 -115q-403 -188 -404 -432zM-4 -524q0 123 100 235q94 106 219 142q13 -60 13 -123 q0 -133 -45 -242q-61 -145 -172 -145q-53 0 -84 37.5t-31 95.5z" />
<glyph unicode="{" horiz-adv-x="587" d="M61 526q0 -45 41 -67q55 -27 74 -66v2q29 -63 41 -190q4 -51 7 -101.5t7 -101.5q8 -72 12.5 -124t4.5 -83q0 -88 178 -88q4 0 15.5 -1t23.5 -2t23.5 -2t17.5 -1q31 6 31 33q0 43 -39 51h-70q-84 0 -84 63q0 98 -7 207t-22 230q-8 78 -28 110q-14 23 -25.5 38.5 t-19.5 25.5l2 -6q-6 6 -9.5 10t-5.5 6q-18 12 -22 16l-23 23q-8 8 -12 11t-6 5q0 6 12 17q14 18 43 37q72 43 98 161q14 129 19 197q4 125 9 201.5t13 107.5q8 27 68 27q68 0 74 12l2 -16q49 2 49 47v6q0 47 -53 47q2 0 -9.5 -1t-33.5 -3q-6 -2 -39 -2q-186 0 -187 -139v-11 q2 -6 2 -10q2 -14 3 -43v-67q0 -293 -41 -435q-23 -14 -47.5 -27.5t-47.5 -27.5q-39 -27 -39 -76z" />
<glyph unicode="|" horiz-adv-x="444" d="M199 80q0 -264 47 -410v2q10 -29 61 -28h4q12 12 21 32v-2l-2 -4q18 37 18 66q0 25 -18 84q-16 59 -19 84q-4 76 -7 164t-3 188q0 111 4 249t12 306q6 121 12.5 195.5t10.5 107.5q27 152 27 240q0 55 -35 55q-63 0 -101 -528q-16 -233 -24 -433t-8 -368z" />
<glyph unicode="}" horiz-adv-x="587" d="M55 -244v-6q0 -45 54 -45q35 0 41 2l30 3t8 1q188 0 189 137v13q-2 6 -2 10q-2 33 -3 59.5t-1 49.5q0 291 39 428q10 8 34.5 22t63.5 35t39 76q0 53 -41 63q-16 4 -41 26.5t-33 41.5v-2q-39 80 -41 190q-4 66 -8 119t-8 94q-4 51 -5 90t-3 66q-2 82 -54 112 q-41 25 -131 25q-33 0 -39 2q-20 2 -30.5 3t-12.5 1q-31 -6 -30 -35q0 -39 41 -49h69q33 0 57.5 -18.5t24.5 -46.5q0 -104 7 -214t22 -227q12 -100 74 -174l-3 6q4 -4 8.5 -9t8.5 -9q18 -16 33.5 -29.5t27.5 -23.5q0 -6 -12 -19q-14 -20 -45 -37q-43 -29 -49 -41 q-55 -80 -66 -317q-8 -260 -22 -303q-8 -27 -66 -27q-70 0 -76 -10v14q-49 -4 -49 -47z" />
<glyph unicode="~" horiz-adv-x="985" d="M92 313q0 -41 55 -41q20 0 37 13q49 74 80 104q39 51 111 51q31 0 86 -55q82 -82 98 -88q57 -39 131 -39h10q90 0 168 61q76 64 76 154q0 53 -57 53h-6q-49 0 -50 -43q-14 -111 -133 -125h-12q-37 0 -70 27l-71 72q-88 88 -176 88t-183 -74q-94 -70 -94 -158z" />
<glyph unicode="&#xa1;" horiz-adv-x="335" d="M145 43l2 -16q33 -55 78 -56q43 0 56 33q23 274 35 471t12 322q0 55 -1 92t-3 55q-10 80 -43 141v-2q-10 25 -29 25q-4 0 -37 -18q12 -72 12 -261q0 -520 -82 -786zM190 1266q0 -45 15 -72q18 -51 53 -51q23 0 47 53h-2q25 45 25 70q0 37 -23.5 61.5t-54.5 24.5 q-18 0 -39 -30.5t-21 -55.5z" />
<glyph unicode="&#xa2;" horiz-adv-x="450" d="M0 698q0 -109 18 -159v2q18 -66 86 -123v-27q2 -14 2 -22v-13q4 -84 35 -84q43 0 43 93v36l-2 2q61 8 97 31q33 23 60.5 61.5t27.5 67.5q0 43 -70 58q-53 -135 -131 -136q-43 0 -62 62q-14 43 -14 117q0 33 6 76.5t17 103.5q27 143 61 147q-2 -2 33 -41q47 -53 86 -53 q47 0 47 47q0 63 -72 123q-20 10 -37.5 19.5t-33.5 17.5v88q0 31 -41 31q-29 0 -37 -74v-62q-119 -94 -119 -389z" />
<glyph unicode="&#xa3;" horiz-adv-x="946" d="M-51 33q0 -61 69 -62q37 0 97 27h-2q295 106 462 106q80 0 99 7q47 16 47 69q0 76 -113 76q-115 0 -299 -53q47 63 97.5 158.5t103.5 224.5l37 8q23 4 38 8t25 8h-2q29 6 54.5 10.5t48.5 6.5l53 -6q14 -2 21.5 -3.5t11.5 -1.5q59 0 59 68q0 86 -119 86q-53 0 -162 -29 q147 332 330 332l7 -1q8 -1 22 -3q4 -2 27 -2q61 0 61 61q0 80 -107 80h-8q-154 0 -260 -106t-244 -404q-51 -14 -112 -14q-6 0 -16.5 1t-22.5 2t-22.5 2t-14.5 1q-27 0 -50.5 -23.5t-23.5 -54.5q0 -72 90 -71q20 0 46 3t59 7q-53 -106 -83 -166.5t-40 -75.5 q-66 -102 -193 -178q-72 -47 -71 -98z" />
<glyph unicode="&#xa4;" horiz-adv-x="1183" d="M66 182l104 -106l190 196q106 -80 254 -79q133 0 248 79l191 -196l104 106l-190 195q80 113 80 256q0 135 -80 256l190 196l-104 107l-191 -199q-109 84 -248 84t-254 -84l-190 199l-104 -107l192 -194q-80 -104 -80 -258q0 -145 80 -256zM315 633q0 125 86 217 q88 92 213 92q123 0 207 -92q86 -92 86 -217t-84 -215q-82 -88 -209 -88t-213 86q-86 88 -86 217z" />
<glyph unicode="&#xa5;" horiz-adv-x="860" d="M-14 295q0 -57 57 -64h12q6 -2 13 -2q68 0 151 15q-158 -219 -158 -273v-6q12 -55 66 -55h12q39 0 76 70q35 63 83 138t110 163q84 20 147 20q4 0 24.5 -2t22.5 -2q12 -2 21 -2h14q59 0 59 59q0 76 -118 76q-23 0 -62 -6l10 10q57 10 92 16.5t52 6.5q8 0 19 -1t28 -3 q16 -2 25 -3l10 -1q59 0 59 59q0 76 -119 76q-20 0 -57 -6q10 14 20.5 26t18.5 23q25 33 42 55.5t27 34.5q68 86 135.5 160.5t135.5 142.5q25 18 26 20v-2q88 80 88 117q0 70 -63 70q-27 0 -66 -23q-115 -70 -415 -457q-27 283 -78 381q-23 41 -72 41q-70 -8 -69 -51 q0 -14 8 -24q66 -100 69 -510l-18 -43q-59 -14 -104 -21.5t-76 -7.5q-6 0 -16.5 1t-22.5 2t-22.5 2t-14.5 1q-27 0 -50.5 -21.5t-23.5 -48.5q0 -53 62 -61q4 -2 34 -2q66 0 136 14l-11 -14l-61 -14q-47 -10 -125 -11q-10 0 -16 2h-19q-6 2 -41 2q-25 0 -46 -21.5t-21 -45.5z " />
<glyph unicode="&#xa6;" horiz-adv-x="321" d="M125 -344h98v723h-98v-723zM125 662h98v729h-98v-729z" />
<glyph unicode="&#xa7;" horiz-adv-x="958" d="M55 -225q0 -76 62.5 -125t161.5 -49q111 0 262 110q0 -2 10 8l72 43q25 14 45 38t35.5 50.5t24.5 54t9 52.5q0 78 -78 149q123 66 171.5 120.5t48.5 121.5q0 135 -238 268q-137 76 -182 138q-20 27 -21 86q0 141 133 141q106 0 164 -88q-82 -63 -82 -102q0 -57 58 -58 q67 0 178 111q39 39 39 94q0 76 -63.5 126t-157.5 50q-72 0 -123 -27q-23 -6 -107 -63q-61 -41 -100 -69.5t-55 -45.5q-68 -72 -68 -151q0 -76 74 -152l-25 -14q-111 -63 -152.5 -113.5t-41.5 -113.5q0 -98 116 -187q53 -35 106.5 -71.5t106.5 -71.5q117 -84 117 -174 q0 -123 -141 -123q-98 0 -172 74q80 57 80 108q0 57 -56 57q-35 0 -116 -67q-94 -76 -95 -135zM295 418q0 78 84 149q57 -41 98 -61q96 -51 137 -86q78 -66 78 -133q0 -76 -84 -144q-25 16 -46 29.5t-42 24.5q-66 37 -108.5 65.5t-68.5 54t-37 50t-11 51.5z" />
<glyph unicode="&#xa8;" horiz-adv-x="372" d="M37 1110q0 -39 27.5 -70.5t64.5 -31.5q64 0 64 94q0 92 -80 92q-25 0 -50.5 -28.5t-25.5 -55.5zM211 1108q0 -39 27.5 -70.5t64.5 -31.5q64 0 64 94q0 92 -80 92q-25 0 -50.5 -28.5t-25.5 -55.5z" />
<glyph unicode="&#xa9;" horiz-adv-x="1531" d="M0 471q0 -281 182 -467q184 -184 467 -184q373 0 637 284q260 279 260 656q0 272 -205 471q-207 201 -477 201q-360 0 -624 -328q-240 -299 -240 -633zM104 469q0 315 220 582q229 279 542 278q233 0 402 -168q172 -166 172 -397q0 -334 -230 -582q-238 -256 -563 -256 q-240 0 -391 152q-152 152 -152 391zM270 444q0 -344 344 -344q117 0 283 105v-2q190 116 309 315q10 16 11 35q0 68 -68 68h-6q-35 0 -53 -35v2q-88 -158 -252 -266q-139 -90 -224 -91q-211 0 -211 213q0 227 185 375q176 139 405 139q18 0 23 -12l-2 4q2 -14 3 -30.5 t1 -32.5q0 -20 19.5 -43t37.5 -23q72 0 72 88q0 90 -12 125q-25 66 -101 66q-319 0 -549 -217q-215 -203 -215 -439z" />
<glyph unicode="&#xaa;" horiz-adv-x="602" d="M90 385h524v86h-524v-86zM94 608q0 -82 80 -82q84 0 209 107q0 -6 -2 -8q2 -137 92 -138q53 0 162 68l-33 35q-23 -12 -37 -12q-49 0 -49 79q0 59 43 224l-41 -13q6 31 6 58q0 100 -63 100q-106 0 -238 -156q-129 -154 -129 -262zM229 666q0 115 127 247l21 5h4 q51 0 51 -99v-12q-109 -178 -176 -178q-27 0 -27 37z" />
<glyph unicode="&#xab;" horiz-adv-x="827" d="M82 444q119 -147 166 -325h45l139 78q-59 166 -180 319l10 8q160 127 217 197l-43 47h-28q-66 -70 -147 -143.5t-179 -153.5v-27zM432 438q115 -127 182 -319h33l146 86q-82 195 -185 321q61 49 114.5 98.5t98.5 100.5l-37 47h-26q-135 -154 -326 -299v-35z" />
<glyph unicode="&#xac;" horiz-adv-x="1181" d="M104 631h879v-424h133v559h-1012v-135z" />
<glyph unicode="&#xad;" horiz-adv-x="548" d="M92 264q0 -23 43 -22h12q68 6 80 6q135 6 222 6q86 14 86 55q0 23 -33 23q-2 0 -23 -4l4 2q-18 -2 -28.5 -3t-12.5 -1h4q-8 0 -14 -2q-14 0 -39.5 -1t-64.5 -4q-20 -2 -37 -2h-33h-10q-16 0 -30.5 -1t-24.5 -3q-23 -2 -33 -3t-13 -1q-55 -10 -55 -45z" />
<glyph unicode="&#xae;" horiz-adv-x="1531" d="M10 473q0 -281 183 -467q184 -184 466 -184q373 0 639 284q261 279 261 656q0 272 -205 471q-207 201 -477 201q-365 0 -625 -328q-242 -303 -242 -633zM117 471q0 315 219 582q229 279 543 278q225 0 399 -170q174 -168 174 -395q0 -334 -229 -582q-238 -256 -566 -256 q-238 0 -389 152q-152 156 -151 391zM250 868q0 -53 41 -53q14 0 55 29l-20 16q6 4 25.5 14.5t51.5 26.5q20 10 42 18.5t44 16.5l-4 -49q-6 -72 -6 -88q0 -78 -12 -344q-4 -90 -6 -164t-2 -133v-45q0 -39 18 -72q20 -39 60 -39q31 0 45 39q-8 55 -12.5 101t-4.5 81 q0 6 1 19.5t1 27.5q0 16 1 28.5t1 18.5v91q0 45 9 45q-2 0 2 -4v2q20 -37 30 -48q86 -104 159 -176.5t136 -113.5h-2q53 -35 113 -35q80 45 86 51q0 43 -33 43q-4 -2 -8 -2t-8 -2q-18 -8 -37 -8q-43 0 -94 45q-59 57 -86 92q-86 94 -127 192q143 39 350 154q74 41 141 113 q86 88 86 151q0 106 -104 172q-90 53 -205 54q-45 0 -135 -11.5t-232 -34.5q-18 29 -32 41q-10 8 -80 17q-2 -29 -4 -52.5t-5 -39.5v-6q-2 -4 -2 -9l-8 -4q-23 -10 -48 -21.5t-54 -25.5q-127 -66 -127 -119zM582 559q0 -23 18 203q6 84 10 136t6 75q231 66 365 65 q164 0 164 -100q0 -72 -86 -158q-70 -70 -156 -112q-152 -76 -321 -109z" />
<glyph unicode="&#xaf;" horiz-adv-x="210" d="M-66 666l29 10l-12 -23l33 1q34 1 100 3l6 5l6 -5h27q10 0 22 5h2l11 -9q8 0 28 4q4 0 7 2h6l2 3l6 -9h69v21l48 41v20q-16 12 -37 13q-2 -6 -8 -9l-7 6q-20 0 -24 3h-23q-10 0 -37 -11q-14 8 -38 8l-5 -4l-2 4q-31 0 -43 -12q-4 4 -8 5t-6 3h-104l-11 -4l-8 -6 q-10 -10 -10 -20v-2q-4 -12 -10 -19q-8 -14 -9 -24z" />
<glyph unicode="&#xb0;" horiz-adv-x="765" d="M170 1032q0 -131 86 -219t215 -88q127 0 213 90q88 88 88 217q0 127 -88 215q-90 92 -213 92q-129 0 -215 -90t-86 -217zM279 1032q0 41 14 77t40.5 63.5t60.5 43t75 15.5q86 0 141.5 -56.5t55.5 -142.5q0 -82 -57.5 -138t-139.5 -56t-136 56t-54 138z" />
<glyph unicode="&#xb1;" horiz-adv-x="1314" d="M141 -6v-135h1071v135h-1071zM141 643h469v-473h133v473h469v135h-469v477h-133v-477h-469v-135z" />
<glyph unicode="&#xb2;" horiz-adv-x="575" d="M82 584l33 -33q78 53 149 53q35 0 92.5 -7t139.5 -22l122 109l-24 29q-47 8 -86 11t-74 3q-49 0 -129 -12q62 51 117 92q209 150 209 248q0 51 -43 85t-111 34q-113 0 -213 -87q-86 -72 -86 -122h27q14 0 31 12q72 59 147 59q74 0 78 -59v2q-10 -78 -191 -225 q-102 -84 -188 -170z" />
<glyph unicode="&#xb3;" horiz-adv-x="567" d="M117 561q6 -61 63 -61h23q102 0 166 75q199 88 198 228q0 100 -112 106q127 84 127 160q0 49 -41 83t-103 34q-115 0 -221 -123l27 -29q76 55 114 56q35 0 59.5 -21.5t24.5 -54.5q0 -55 -53 -84q-47 -25 -104 -25h-21q-29 -41 -86 -82l27 -26q35 8 59.5 12t40.5 4 q119 0 119 -82q0 -47 -49 -92q-49 -43 -96 -43q-31 0 -66 35q-47 -33 -70.5 -50.5t-25.5 -19.5z" />
<glyph unicode="&#xb4;" horiz-adv-x="401" d="M207 911q0 -16 14 -30v2l17 -29l94 53q8 4 12 7l4 4q8 8 12 8q58 38 58 65q0 43 -47 53l2 -2q-16 4 -19 5q-41 0 -61 -37q-14 -14 -23.5 -22.5t-13.5 -12.5q-49 -47 -49 -64z" />
<glyph unicode="&#xb6;" horiz-adv-x="1079" d="M125 922q0 -240 237 -306h-2q57 -16 175 -26l-142 -1018h103l233 1708h150l-236 -1708h100l234 1708h131l8 84h-489q-215 0 -353 -113q-150 -119 -149 -329z" />
<glyph unicode="&#xb7;" horiz-adv-x="380" d="M143 385q20 -14 25 -14l8 -9l39 -4h2q2 -2 31 -2q23 29 22 35l-10 10l10 82q-23 12 -39 17q-18 12 -38 12v-2q-12 4 -13 4l-30 -10q-6 -29 -7 -68v-51zM152 420l2 -2z" />
<glyph unicode="&#xb8;" horiz-adv-x="268" d="M35 -199q0 -20 2 -22q6 -41 26 -41q14 0 19 10l82 39q59 29 59 80q0 68 -63 110q8 12 27.5 38t54.5 65l-97 6q-45 -68 -47 -74q-47 -78 -47 -86v-4q8 -23 19 -31q10 -2 14 -2h4q37 -2 41 -18q0 -16 -27 -25l-12 -4t-10 -4q-14 -4 -23.5 -5t-13.5 -3q-8 -14 -8 -29z" />
<glyph unicode="&#xb9;" horiz-adv-x="548" d="M174 961l33 -48l135 97l-109 -475l33 -19q35 37 125 84l12 14q14 115 39 248t62 287l-33 33q-94 -70 -156.5 -117t-97.5 -72z" />
<glyph unicode="&#xba;" horiz-adv-x="600" d="M121 645q0 -125 121 -125q109 0 217 98q109 98 108 207q0 131 -123 131q-100 0 -256 -98l2 -35q-70 -94 -69 -178zM131 383h416v76h-416v-76zM238 707q0 80 81 167q5 3 23 3q104 0 104 -107q0 -68 -77 -158q-18 -6 -39 -6q-39 0 -65.5 29t-26.5 72z" />
<glyph unicode="&#xbb;" horiz-adv-x="829" d="M70 166l41 -47h26q72 82 153 155.5t173 143.5v35q-53 57 -98.5 136t-83.5 181h-31l-154 -88l19 -35q57 -109 99 -179.5t71 -105.5l-17 -14q-41 -31 -90 -77t-108 -105zM420 176l39 -51h28q188 188 330 291v30q-123 154 -170 322h-43l-141 -74q59 -152 153 -286l25 -35 l-35 -31q-88 -78 -134 -119t-52 -47z" />
<glyph unicode="&#xbc;" horiz-adv-x="956" d="M78 25l55 -45l811 919l-57 47zM211 811l20 -55l105 57l-92 -348q82 57 145 88l12 12q16 86 38 178.5t50 194.5l-34 18q-57 -39 -118 -74.5t-126 -70.5zM420 139l12 -30h184l-41 -152q109 57 134 66l16 86h61l111 86h-154l48 237l-33 12l-33 -26q-262 -215 -305 -279z M551 190q30 35 108 103l-22 -103h-86z" />
<glyph unicode="&#xbd;" horiz-adv-x="958" d="M76 25l53 -45l817 913l-55 49zM195 799l28 -49l105 57l-76 -328h31l123 80q23 117 43 211t40 166l-30 20q-94 -61 -174 -106zM412 25l26 -31q59 10 106.5 15t82.5 5q37 0 71.5 -3t67.5 -11l78 80l-15 33q-51 2 -73.5 3t-14.5 1h-12q-16 0 -41.5 -3t-60.5 -8 q14 10 27.5 18.5t29.5 18.5v2q172 117 172 179q0 43 -39 69.5t-98 26.5q-86 0 -215 -111l31 -30q66 35 122 34q68 0 68 -30q0 -33 -172 -156q-41 -29 -64.5 -46.5t-29.5 -21.5z" />
<glyph unicode="&#xbe;" horiz-adv-x="958" d="M68 25l57 -45l819 921l-57 47zM147 557q29 -41 80 -41q90 0 166 51v-2q86 51 86 115q0 53 -76 78q115 66 115 119q0 78 -123 77q-35 0 -84 -12l-104 -78l29 -39q76 31 118 31q37 0 37 -25q0 -49 -123 -61l-67 -55l16 -37q35 4 52.5 7t15.5 3q80 -4 80 -51q0 -43 -62 -43 q-31 0 -74 18q-39 -12 -82 -55zM397 121l11 -35h192l-29 -115l27 -14q33 25 100 47l13 84h59l125 86h-164l55 238l-36 18q-172 -135 -299 -250q-16 -20 -29.5 -34.5t-24.5 -24.5zM530 172q37 33 65 56.5t48 39.5l-22 -96h-91z" />
<glyph unicode="&#xbf;" horiz-adv-x="759" d="M-63 260q0 -113 49 -188q55 -90 161 -90q139 0 304 157q51 51 93 105.5t77 113.5q82 139 81 260q0 90 -59 91q-8 0 -35 -11q2 -18 3 -30.5t1 -18.5q0 -90 -51 -178q-20 -35 -49 -76t-70 -90q-182 -225 -301 -225q-106 0 -106 121q0 137 100 274q51 70 74 98 q45 61 75.5 104.5t47.5 65.5q111 154 110 273q0 131 -61 131q-45 0 -45 -39q0 -12 10 -29q10 -16 14 -30l-34 -123l2 6q-80 -113 -219 -281q-90 -109 -123 -180q-49 -98 -49 -211zM297 1286q0 -70 88 -69q29 0 50.5 30.5t21.5 65.5q0 80 -72 80q-37 0 -62.5 -32t-25.5 -75z " />
<glyph unicode="&#xc0;" horiz-adv-x="1345" d="M-51 119q78 -164 252 -164q141 0 268 197q57 90 97 156.5t67 113.5q129 10 238.5 16t201.5 11q82 -352 156 -445q29 -4 48 -6t34 -2q55 0 55 37l-6 12q-4 4 -7 6t-5 4l-22.5 22.5t-10.5 12.5q-47 121 -119 463q-84 408 -84 670q0 4 1 16t3 27.5t3 29t1 19.5q0 31 -59 67 q-57 39 -92 39q-82 0 -82 -45q0 -10 6 -22q0 -2 2 -4v-4q0 -57 -113 -347q-63 -166 -119.5 -287.5t-103.5 -201.5q-223 -25 -223 -55q0 -47 67 -47q29 0 37 2l37 6q16 0 21 -2q-90 -166 -138 -217q-104 -109 -243 -109q-78 0 -78 59q-18 0 -31 3l-12 2h-4l-2 -2h-2 q-23 -14 -27 -19zM686 526q31 57 68 145.5t82 211.5q35 98 64.5 175t55.5 136q2 0 5 -8v2q2 -16 2 -31q0 -14 2 -24q2 -31 18 -143.5t47 -309.5q8 -45 14.5 -81t10.5 -64zM754 1698q0 -39 65 -80l-2 2q14 -6 23.5 -12t17.5 -11l100 -61l27 27q14 27 14 39q0 23 -55 75 q-14 14 -26.5 25.5t-22.5 21.5v-2q-23 41 -66 41q-4 0 -20 -4l2 2q-57 -12 -57 -63z" />
<glyph unicode="&#xc1;" horiz-adv-x="1345" d="M-51 119q78 -164 252 -164q141 0 268 197q57 90 97 156.5t67 113.5q129 10 238.5 16t201.5 11q82 -352 156 -445q29 -4 48 -6t34 -2q55 0 55 37l-6 12q-4 4 -7 6t-5 4l-22.5 22.5t-10.5 12.5q-47 121 -119 463q-84 408 -84 670q0 4 1 16t3 27.5t3 29t1 19.5q0 31 -59 67 q-57 39 -92 39q-82 0 -82 -45q0 -10 6 -22q0 -2 2 -4v-4q0 -57 -113 -347q-63 -166 -119.5 -287.5t-103.5 -201.5q-223 -25 -223 -55q0 -47 67 -47q29 0 37 2l37 6q16 0 21 -2q-90 -166 -138 -217q-104 -109 -243 -109q-78 0 -78 59q-18 0 -31 3l-12 2h-4l-2 -2h-2 q-23 -14 -27 -19zM686 526q31 57 68 145.5t82 211.5q35 98 64.5 175t55.5 136q2 0 5 -8v2q2 -16 2 -31q0 -14 2 -24q2 -31 18 -143.5t47 -309.5q8 -45 14.5 -81t10.5 -64zM967 1602q0 -12 16 -35v2l21 -35l106 63q33 20 35 21q67 43 67 80q0 53 -55 63l2 -2q-20 4 -22 4 q-45 0 -70 -43q-35 -31 -43 -43q-57 -57 -57 -75z" />
<glyph unicode="&#xc2;" horiz-adv-x="1345" d="M-51 119q78 -164 252 -164q141 0 268 197q57 90 97 156.5t67 113.5q129 10 238.5 16t201.5 11q82 -352 156 -445q29 -4 48 -6t34 -2q55 0 55 37l-6 12q-4 4 -7 6t-5 4l-22.5 22.5t-10.5 12.5q-47 121 -119 463q-84 408 -84 670q0 6 1 19t3 28.5t3 28t1 18.5q0 29 -61 65 q-57 39 -90 39q-82 0 -82 -45q0 -10 6 -22q0 -2 2 -4v-4q0 -57 -113 -347q-63 -166 -119.5 -287.5t-103.5 -201.5q-223 -25 -223 -55q0 -47 67 -47q66 0 74 8q16 0 21 -2q-90 -166 -138 -217q-104 -109 -243 -109q-78 0 -78 59q-18 0 -31 3l-12 2h-4l-2 -2h-2 q-16 -8 -27 -19zM686 526q31 57 68 145.5t82 211.5q41 111 70.5 187.5t49.5 123.5q2 0 5 -8v2q2 -16 2 -31q0 -14 2 -24q2 -31 18 -143.5t47 -309.5q8 -45 14.5 -81t10.5 -64zM872 1616q0 -23 25 -35h8q23 0 76 53l4 4q27 27 45 27q16 0 33 -23l-2 3q14 -35 31 -52l6 -12 q25 -39 47 -39l12 4q16 10 17 31v6q0 31 -58 113q-55 86 -78 86h-2q-31 0 -94 -62q-59 -57 -70 -92v-12z" />
<glyph unicode="&#xc3;" horiz-adv-x="1345" d="M-51 119q78 -164 252 -164q141 0 268 197q57 90 97 156.5t67 113.5q129 10 238.5 16t201.5 11q82 -352 156 -445q29 -4 48 -6t34 -2q55 0 55 37l-6 12q-4 4 -7 6t-5 4l-22.5 22.5t-10.5 12.5q-47 121 -119 463q-84 408 -84 670q0 6 1 19t3 28.5t3 28t1 18.5q0 29 -61 65 q-57 39 -90 39q-82 0 -82 -45q0 -10 6 -22q0 -2 2 -4v-4q0 -57 -113 -347q-63 -166 -119.5 -287.5t-103.5 -201.5q-223 -25 -223 -55q0 -47 67 -47q10 0 17 2h20q25 2 37 6q16 0 21 -2q-90 -166 -138 -217q-104 -109 -243 -109q-78 0 -78 59q-18 0 -31 3l-12 2h-4l-2 -2h-2 q-16 -8 -27 -19zM686 526q31 57 68 145.5t82 211.5q41 111 70.5 187.5t49.5 123.5q2 0 5 -8v2q2 -16 2 -31q0 -14 2 -24q2 -31 18 -143.5t47 -309.5q8 -45 14.5 -81t10.5 -64zM852 1663q0 -57 31 -57q23 0 37 45q8 27 18 26q25 0 59 -47q29 -29 52.5 -49t46.5 -35l2 -2 q6 -6 20 -6q18 0 37 12.5t33 34t23.5 48t9.5 55.5q0 37 -37 61q-6 -12 -10.5 -19.5t-6.5 -11.5q-41 -66 -51 -65q-6 0 -8 2q-53 39 -70 61q-66 59 -104 60h-6q-4 -2 -8 -2q-68 -16 -68 -111z" />
<glyph unicode="&#xc4;" horiz-adv-x="1345" d="M-51 119q78 -164 252 -164q141 0 268 197q57 90 97 156.5t67 113.5q129 10 238.5 16t201.5 11q82 -352 156 -445q29 -4 48 -6t34 -2q55 0 55 37l-6 12q-4 4 -7 6t-5 4l-22.5 22.5t-10.5 12.5q-47 121 -119 463q-84 408 -84 668q0 14 4 46.5t4 47.5q0 27 -61 67 q-57 39 -90 39q-82 0 -82 -45q0 -10 6 -22q0 -2 2 -4v-4q0 -57 -113 -347q-63 -166 -119.5 -287.5t-103.5 -201.5q-223 -27 -223 -55q0 -49 67 -49q6 0 15.5 1t21.5 3l37 6q16 0 21 -2q-90 -166 -138 -217q-104 -109 -243 -109q-78 0 -78 59q-18 0 -31 3l-12 2h-4l-2 -2h-2 q-23 -14 -27 -19zM686 526q31 59 68 148.5t82 208.5q47 127 76.5 204.5t43.5 106.5q2 0 5 -8v2q2 -14 2 -29q0 -14 2 -29q2 -35 18 -147t47 -305q10 -53 15.5 -90t9.5 -53zM831 1649q0 -39 28 -71t65 -32q63 0 63 94q0 92 -80 93q-25 0 -50.5 -29t-25.5 -55zM1006 1647 q0 -39 27.5 -71t64.5 -32q63 0 63 94q0 92 -80 93q-25 0 -50 -29t-25 -55z" />
<glyph unicode="&#xc5;" horiz-adv-x="1345" d="M-51 119q78 -164 252 -164q141 0 268 197q59 98 100 164.5t64 107.5q295 18 440 25q82 -352 156 -445q29 -4 48 -6t34 -2q55 0 55 37l-6 14l-12 8q-20 12 -31 29q-25 55 -68 231q-10 47 -23.5 106.5t-29.5 131.5q-84 408 -84 670q0 6 1 19t3 28.5t3 28t1 18.5 q0 31 -59 67q-57 39 -92 39q-82 0 -82 -45q0 -10 6 -22q0 -2 2 -4v-4q0 -57 -113 -347q-63 -166 -119.5 -287.5t-103.5 -201.5q-223 -27 -223 -57q0 -47 67 -47q6 0 15.5 1t21.5 3l37 6q16 0 21 -2q-82 -162 -138 -219q-102 -109 -243 -109q-78 0 -78 59q-18 0 -31 3l-12 2 h-4l-2 -2h-2q-16 -8 -27 -19zM686 528q31 59 68 148.5t82 208.5q47 127 76.5 204.5t43.5 106.5q2 0 5 -8v2q2 -14 2 -29q0 -14 2 -28q2 -33 18 -145.5t47 -307.5q6 -41 12.5 -77t12.5 -68zM942 1661q0 -117 100 -117q72 0 129 88q53 84 54 140v12q-2 6 -2 10q-18 90 -103 90 q-72 0 -133 -92q-45 -66 -45 -131zM1034 1663v8q0 25 23 66h-2q26 43 49 43q16 0 22 -19v-10q0 -27 -26 -65h2q-23 -41 -53 -41q-12 0 -15 18z" />
<glyph unicode="&#xc6;" horiz-adv-x="2306" d="M-53 117q82 -162 256 -162q145 0 272 197q41 66 83 132t83 136q135 10 244.5 16t199.5 10q10 -41 17.5 -67.5t11.5 -42.5q6 -61 27 -98l-2 2q49 -164 104 -236q29 -4 48.5 -6t33.5 -2q49 0 55 37q147 -55 346 -56q141 0 345 60q262 84 262 199q0 61 -111 61v-68 q-74 -41 -117 -61q-23 -10 -66.5 -22.5t-113.5 -22.5q-117 -18 -192 -19q-297 0 -443 109l-63 254q57 129 282 215q186 74 363 74q18 0 67 -31q55 20 56 72v10q0 45 -39 72h-27q-45 0 -137 -7h2q-16 0 -40.5 -2t-59.5 -6q-68 -6 -103 -6q-86 0 -155 25h2q-90 35 -90 90 q0 143 288 227q215 59 428 60q47 0 86 -17l-2 2q45 -35 72 -59q53 0 53 80q0 82 -84 110l2 -2q-45 16 -137 17q-250 0 -479 -74q-324 -104 -324 -322q0 -152 176 -223q-156 -84 -231 -166q-70 330 -70 608q0 16 3.5 47t3.5 48q0 27 -62 67q-57 39 -90 39q-84 0 -84 -47 q0 -12 6 -20q0 -2 2 -5v-4q0 -49 -114 -346q-61 -160 -118 -279.5t-108 -205.5q-225 -29 -225 -55q0 -49 70 -50q-10 0 8 3.5t65 7.5q16 0 21 -2q-47 -84 -82 -137.5t-57 -79.5q-98 -106 -246 -107q-78 0 -78 59q-20 0 -33 3l-12 2h-4l-2 -2h-2q-14 -10 -22 -16l-7 -5z M694 524q35 70 73 157t79 198q88 240 123 309q2 0 4 -8v2q2 -16 2 -31q0 -14 2 -25q2 -37 18 -148.5t47 -301.5q6 -39 12.5 -74t12.5 -70z" />
<glyph unicode="&#xc7;" horiz-adv-x="835" d="M0 446q0 -188 80 -313t229 -147q-27 -39 -41 -60.5t-18 -27.5q-8 -14 -8 -27v-6q6 -18 20 -33q6 0 10 -2h11q41 -8 49 -20v-3q0 -14 -19.5 -20t-38.5 -12q-14 -4 -24 -6t-17 -5q-10 -27 -10 -30q0 -23 2 -27q6 -43 31 -43q18 0 23 10q27 12 51 24.5t51 22.5q61 37 61 82 v7q-2 4 -2 8q-8 66 -73 106q6 10 16.5 25t24.5 31q123 6 241 61q123 59 189 145q8 25 13 40.5t7 23.5q0 41 -59 47l-37 -70q-193 -150 -400 -149q-223 0 -223 317q0 293 109 602q113 322 248 322q59 0 125 -31q76 -33 75 -90q0 -59 -32 -188v2q-35 -135 -35 -189 q0 -39 18 -75q20 -45 58 -46q51 0 86 177q10 61 16 111t6 91q0 106 -20 156q-33 80 -138 131q-90 45 -186 45q-82 0 -125 -31h2q-158 -102 -262 -440q-84 -276 -84 -496z" />
<glyph unicode="&#xc8;" horiz-adv-x="1179" d="M0 381q0 -215 213 -326q156 -80 391 -80q137 0 338 60q260 81 260 198q0 63 -108 64v-70q-10 -2 -115 -59q-20 -10 -64.5 -22.5t-113.5 -22.5q-59 -10 -106.5 -15.5t-82.5 -5.5q-190 0 -329 52q-188 72 -189 219q0 184 277 299q205 86 379 86q16 0 63 -31q57 20 57 72v10 q0 43 -41 72h-24q-43 0 -135 -7h2q-16 0 -41 -2t-60 -6q-68 -6 -100 -6q-84 0 -152 25h3q-90 35 -91 90q0 147 285 229q213 59 420 60q47 0 86 -17l-2 2q49 -37 72 -59q51 0 51 80q0 84 -84 112l2 -2q-35 14 -133 15q-250 0 -473 -74q-317 -104 -318 -322q0 -158 172 -225 q-139 -78 -213 -153q-96 -106 -96 -240zM516 1698q0 -39 66 -80l-2 2q14 -6 23 -12t18 -11l100 -61l27 27q12 27 12 39q0 23 -55 75q-20 18 -31.5 30.5t-16.5 16.5v-2q-27 39 -65 39q-4 0 -21 -4v2q-55 -12 -55 -61z" />
<glyph unicode="&#xc9;" horiz-adv-x="1179" d="M0 381q0 -215 213 -326q156 -80 391 -80q137 0 338 60q260 81 260 198q0 63 -108 64v-70q-10 -2 -115 -59q-20 -10 -64.5 -22.5t-113.5 -22.5q-59 -10 -106.5 -15.5t-82.5 -5.5q-190 0 -329 52q-188 72 -189 219q0 184 277 299q205 86 379 86q16 0 63 -31q57 20 57 72v10 q0 43 -41 72h-24q-35 0 -135 -7q-29 -2 -52.5 -4t-46.5 -4q-72 -6 -100 -6q-84 0 -152 25h3q-90 35 -91 90q0 147 285 229q213 59 420 60q47 0 86 -17l-2 2q49 -37 72 -59q51 0 51 80q0 84 -84 112l2 -2q-35 14 -133 15q-250 0 -473 -74q-317 -104 -318 -322 q0 -158 172 -225q-139 -78 -213 -153q-96 -106 -96 -240zM694 1602q0 -18 17 -35l20 -33l107 63q33 20 34 21q66 41 66 80q0 51 -55 61l2 -2q-20 4 -21 4q-45 0 -69 -41q-35 -31 -43 -43q-57 -57 -58 -75z" />
<glyph unicode="&#xca;" horiz-adv-x="1179" d="M0 381q0 -215 213 -326q156 -80 391 -80q137 0 338 60q260 81 260 198q0 63 -108 64v-70q-10 -2 -115 -59q-20 -10 -64.5 -22.5t-113.5 -22.5q-59 -10 -106.5 -15.5t-82.5 -5.5q-190 0 -329 52q-188 72 -189 219q0 184 277 299q205 86 379 86q16 0 63 -31q57 20 57 72v10 q0 43 -41 72h-24q-35 0 -135 -7q-29 -2 -52.5 -4t-46.5 -4q-72 -6 -100 -6q-84 0 -152 25h3q-90 35 -91 90q0 147 285 229q213 59 420 60q47 0 86 -17l-2 2q49 -37 72 -59q51 0 51 80q0 84 -84 112l2 -2q-45 16 -133 17q-246 0 -473 -76q-317 -104 -318 -322 q0 -158 172 -225q-139 -78 -213 -153q-96 -106 -96 -240zM645 1616q0 -27 27 -35h8q20 0 74 53l4 4q27 27 47 27q14 0 31 -23l-2 3q10 -20 18 -33t12 -21l6 -10q20 -39 48 -39l12 4q16 12 16 31v6q0 33 -57 117q-53 80 -78 80q-37 0 -96 -58q-61 -61 -70 -94v-12z" />
<glyph unicode="&#xcb;" horiz-adv-x="1179" d="M0 381q0 -215 213 -326q156 -80 391 -80q137 0 338 60q260 81 260 198q0 63 -108 64v-70q-51 -27 -80 -41t-35 -18q-23 -10 -68 -22.5t-110 -22.5q-59 -10 -106.5 -15.5t-82.5 -5.5q-190 0 -329 52q-188 72 -189 219q0 182 277 297q205 86 379 86q16 0 63 -29 q57 20 57 72v10q0 43 -41 72h-24q-35 0 -135 -7q-29 -2 -52.5 -4t-46.5 -4q-72 -6 -100 -6q-84 0 -152 25h3q-90 35 -91 90q0 145 285 227q211 61 420 62q47 0 86 -17l-2 2q23 -16 40 -31.5t32 -29.5q51 0 51 82t-84 110l2 -2q-45 16 -133 17q-250 0 -473 -74 q-317 -104 -318 -322q0 -92 43 -143q35 -41 129 -82q-139 -78 -213 -153q-96 -106 -96 -240zM621 1649q0 -39 27.5 -71t64.5 -32q63 0 63 94q0 92 -80 93q-25 0 -50 -29t-25 -55zM795 1647q0 -39 27.5 -71t64.5 -32q63 0 63 94q0 92 -80 93q-25 0 -50 -29t-25 -55z" />
<glyph unicode="&#xcc;" horiz-adv-x="583" d="M-47 10q4 -41 201 -41q145 0 270 29q96 23 111 45q0 53 -121 53l-109 -4q-2 47 -3 83t-1 61q0 651 86 974l182 31q27 2 88 37l9 25q-12 31 -43 30q-14 0 -36 1t-44 1q-23 0 -45.5 1t-36.5 1l-365 -34q-55 -33 -116 -91q72 -4 130 -7t103 -3l-14 -448l-13 -279 q-4 -90 -6 -158.5t-2 -119.5q0 -6 1 -21.5t3 -38.5q6 -47 6 -61l-118 -15q-119 -14 -117 -51zM43 1698q0 -41 63 -80l-2 2q12 -4 21.5 -12.5t17.5 -10.5l99 -61l26 27q12 27 13 39q0 23 -54 75l-47 47v-2q-25 39 -63 39q-2 0 -23 -4l2 2q-53 -12 -53 -61z" />
<glyph unicode="&#xcd;" horiz-adv-x="583" d="M-47 10q4 -41 201 -41q145 0 270 29q96 23 111 45q0 53 -121 53l-109 -4q-2 47 -3 83t-1 61q0 651 86 974l182 31q27 2 88 37l9 25q-12 31 -43 30q-14 0 -36 1t-44 1q-23 0 -45.5 1t-36.5 1l-365 -34q-55 -33 -116 -91q72 -4 130 -7t103 -3l-14 -448l-13 -279 q-4 -90 -6 -158.5t-2 -119.5q0 -6 1 -21.5t3 -38.5q6 -47 6 -61l-118 -15q-119 -14 -117 -51zM324 1602q0 -18 16 -35v2l18 -35l105 63q14 8 22.5 14.5t10.5 6.5q65 43 65 80q0 51 -53 61l2 -2q-20 4 -23 4q-45 0 -67 -41l-43 -43q-53 -53 -53 -75z" />
<glyph unicode="&#xce;" horiz-adv-x="583" d="M-47 10q4 -41 201 -41q145 0 270 29q96 23 111 45q0 53 -121 53l-109 -4q-2 47 -3 83t-1 61q0 651 86 974l182 31q27 2 88 37l9 27q-12 29 -43 28q-14 0 -36 1t-44 1q-23 0 -45.5 1t-36.5 1l-365 -34q-55 -33 -116 -91q72 -4 130 -7t103 -3l-14 -448l-13 -279 q-4 -90 -6 -158.5t-2 -119.5q0 -6 1 -21.5t3 -38.5q6 -47 6 -61l-118 -15q-119 -14 -117 -51zM197 1616q0 -27 24 -35h8q20 0 74 53l2 4q27 27 45 27q20 0 31 -23l-2 3q10 -18 18.5 -32t12.5 -22l4 -10q27 -39 47 -39l12 4q16 10 16 31v6q0 29 -53 113t-78 84h-2 q-33 0 -92 -60q-59 -59 -67 -92v-12z" />
<glyph unicode="&#xcf;" horiz-adv-x="583" d="M-47 10q4 -41 201 -41q145 0 270 29q96 23 111 45q0 53 -121 53l-109 -4q-2 47 -3 83t-1 61q0 662 86 972l182 33q27 2 88 37l9 25q-12 31 -43 30q-14 0 -36 1t-44 1q-23 0 -45.5 1t-36.5 1q-37 0 -365 -37q-59 -33 -116 -90q72 -4 130 -7t103 -3l-14 -448l-13 -279 q-4 -90 -6 -158.5t-2 -117.5q0 -6 1 -21.5t3 -38.5q6 -47 6 -61l-118 -15q-119 -14 -117 -51zM174 1649q0 -39 27.5 -71t64.5 -32q64 0 64 94q0 92 -80 93q-25 0 -50.5 -29t-25.5 -55zM348 1647q0 -39 27.5 -71t64.5 -32q64 0 64 94q0 92 -80 93q-25 0 -50.5 -29t-25.5 -55z " />
<glyph unicode="&#xd0;" horiz-adv-x="376" d="M-6 82q0 -23 6 -35l-2 2q10 -47 47 -47q39 0 43 104q8 221 49 551q0 -55 35 -120l49 -93q-84 -145 -84 -266q0 -43 8 -67l-2 2q12 -55 48 -95.5t75 -40.5q84 0 125 134h-2q10 35 10 67q0 106 -71 240l4 8q90 16 90 43v8q-8 29 -31 39q-14 4 -22.5 6t-12.5 4q-6 0 -15 -1 t-19 -3q-35 -6 -43 -12q-51 94 -52 137q0 42 37 103q152 256 152 452v19q0 70 -36 122t-91 52q-106 2 -172 -250q-29 -111 -48.5 -226.5t-29.5 -240.5l-39 -465q-6 -98 -6 -131zM139 682q19 170 56 352q12 53 36 125q35 96 60 96q20 0 31 -28l-3 2l3.5 -24.5t1.5 -14.5 q0 -168 -115 -356q-57 -94 -70 -152zM215 190q0 88 49 156q33 -75 41 -110q6 -25 6 -58q0 -119 -41 -119q-29 0 -51 103q-2 10 -3 17t-1 11zM334 432q2 8 8 14h10q-8 -4 -18 -14z" />
<glyph unicode="&#xd1;" horiz-adv-x="1056" d="M-92 37q0 -82 143 -82q172 0 256 209q59 158 96 426q27 190 42.5 299.5t21.5 138.5q41 -248 84 -440.5t90 -329.5h-2q51 -156 68 -186v2q51 -80 143 -80q109 0 108 61q0 2 -1 10.5t-3 24.5v-2q-6 31 -6 37q0 129 7.5 276.5t21.5 313.5q31 344 84 579l-2 -2q37 93 37 97 q0 41 -68 51q-92 -123 -119 -414q-23 -223 -34 -355t-13 -173l-12 -271q-4 -90 -19 -90q-100 0 -167 541q-27 203 -39.5 365.5t-12.5 291.5q0 92 -123 92q-53 0 -98 -67q2 -2 2 -35q0 -80 -15.5 -219t-43.5 -342q-106 -721 -320 -721q-25 0 -30 2l6 5t10 9q-29 29 -47 29 q-45 0 -45 -51zM586 1663q0 -57 30 -57q23 0 37 45q8 27 19 26q25 0 59 -47q59 -59 96 -84l2 -2q8 -6 23 -6q16 0 33.5 13.5t33 34t24.5 47t9 55.5q0 33 -34 61q-12 -25 -19 -31q-41 -66 -49 -65q-6 0 -8 2q-39 27 -52.5 41t-17.5 20q-66 59 -104 60h-6q-4 -2 -9 -2 q-68 -16 -67 -111z" />
<glyph unicode="&#xd2;" horiz-adv-x="851" d="M0 492q0 -213 94 -353q111 -164 307 -164q254 0 369 344q74 223 74 545q0 545 -408 572q-12 2 -28 -9q-20 14 -43 15q-47 0 -97 -62q-2 -2 -19.5 -26.5t-51.5 -73.5q-100 -147 -152 -379q-23 -100 -34 -202.5t-11 -206.5zM143 496q0 244 88 508q109 330 246 329 q147 0 211 -168q45 -115 45 -291q0 -801 -346 -800q-244 0 -244 422zM209 1698q0 -39 65 -80l-2 2q20 -10 30 -16l9 -7l99 -61l26 27q12 27 13 39q0 23 -54 75l-47 47v-2q-27 39 -65 39l-21 -4l2 2q-55 -12 -55 -61z" />
<glyph unicode="&#xd3;" horiz-adv-x="851" d="M0 492q0 -213 94 -353q111 -164 307 -164q254 0 369 344q74 223 74 545q0 545 -408 572q-12 2 -28 -9q-20 14 -43 15q-47 0 -97 -62q-2 -2 -19.5 -26.5t-51.5 -73.5q-100 -147 -152 -379q-23 -100 -34 -202.5t-11 -206.5zM143 496q0 244 88 508q109 330 246 329 q147 0 211 -168q45 -115 45 -291q0 -801 -346 -800q-244 0 -244 422zM518 1602q0 -20 14 -35l21 -33l104 63q14 8 22.5 13.5t12.5 7.5q66 41 66 80q0 51 -56 61l3 -2q-16 4 -21 4q-45 0 -70 -41l-43 -43q-53 -53 -53 -75z" />
<glyph unicode="&#xd4;" horiz-adv-x="851" d="M0 494q0 -209 94 -353q111 -166 307 -166q254 0 369 344q74 223 74 545q0 545 -408 572q-12 2 -28 -9q-20 14 -43 15q-47 0 -99 -62q-4 -4 -20.5 -28.5t-48.5 -71.5q-100 -147 -152 -379q-23 -100 -34 -201.5t-11 -205.5zM143 498q0 242 88 506q109 330 246 329 q147 0 211 -168q45 -115 45 -291q0 -801 -346 -800q-244 0 -244 424zM395 1616q0 -27 25 -35h8q20 0 74 53l4 4q27 27 45 27q14 0 31 -23l-2 3q10 -18 18 -32t12 -22l4 -10q27 -39 48 -39l12 4q18 12 18 31v6q0 29 -57 117q-53 80 -76 80h-2q-37 0 -94 -58q-59 -59 -68 -94 v-12z" />
<glyph unicode="&#xd5;" horiz-adv-x="851" d="M0 494q0 -209 94 -353q111 -166 307 -166q254 0 369 344q74 223 74 545q0 545 -408 572q-12 2 -28 -9q-20 14 -43 15q-51 0 -103 -68q-262 -346 -262 -880zM143 496q0 244 88 508q109 330 246 329q147 0 211 -168q45 -115 45 -291q0 -801 -346 -800q-244 0 -244 422z M338 1663q0 -57 29 -57q25 0 36 45q8 25 19 24q27 0 59 -45q43 -49 94 -84l3 -2q8 -6 22 -6q16 0 33.5 12.5t32 34t23.5 47t9 54.5q0 39 -34 63q-10 -25 -17 -31q-41 -66 -49 -65q-6 0 -8 2q-41 27 -52.5 41t-15.5 20q-63 57 -104 58h-6q-4 -2 -9 -2q-66 -16 -65 -109z" />
<glyph unicode="&#xd6;" horiz-adv-x="851" d="M0 492q0 -213 94 -353q111 -164 307 -164q254 0 369 344q74 223 74 545q0 545 -408 572q-12 2 -28 -9q-20 14 -43 15q-51 0 -101 -70q-25 -35 -41 -57.5t-26 -36.5q-98 -141 -152 -377q-23 -100 -34 -202.5t-11 -206.5zM143 496q0 244 88 508q109 330 246 329 q147 0 211 -168q45 -115 45 -291q0 -801 -346 -800q-244 0 -244 422zM403 1649q0 -39 28 -71t65 -32q63 0 63 94q0 92 -80 93q-25 0 -50.5 -29t-25.5 -55zM578 1647q0 -39 27.5 -71t64.5 -32q63 0 63 94q0 92 -80 93q-25 0 -50 -29t-25 -55z" />
<glyph unicode="&#xd7;" horiz-adv-x="1175" d="M139 133l94 -96l373 385l377 -385l94 96l-377 383l377 383l-94 96l-377 -385l-373 385l-94 -96l375 -383z" />
<glyph unicode="&#xd8;" horiz-adv-x="1007" d="M-39 358l45 -73l107 77q27 -162 125 -272q106 -113 270 -113q258 0 375 345q74 217 73 540q0 61 -6 117l172 125l-53 72l-131 -99q-74 334 -393 353q-14 0 -29 -7q-29 12 -43 13q-53 0 -104 -68q-266 -346 -267 -876v-23zM248 463l596 436v-27q0 -796 -350 -796 q-233 0 -246 387zM250 573q12 205 88 426q115 330 248 330q113 0 184 -108h-2q57 -100 68 -217z" />
<glyph unicode="&#xd9;" horiz-adv-x="1071" d="M-68 956q92 -100 156 -100q78 0 191 82q-33 -141 -48.5 -253t-15.5 -198q0 -512 328 -512q127 0 219 131q27 35 88 162q6 -176 8 -182q16 -170 94 -170q35 0 76 31q-57 39 -57 207v200l63 625q12 113 58 195l-5 26q-88 70 -135 70q-39 0 -57 -35q0 -29 6 -49v2 q8 -31 8 -127q0 -260 -75 -545q-41 -158 -99 -270q-88 -180 -192 -180q-123 0 -168 141h2q-27 88 -27 262q0 338 146 694q10 14 22 28.5t23 29.5q31 43 30 59q0 47 -133 90q-190 -426 -415 -426q-20 0 -91 12zM516 1700q0 -45 66 -80h-2q8 -2 21 -11.5t17 -9.5l101 -63 l26 27q14 27 15 41q0 23 -55 75q-23 20 -35.5 31.5t-14.5 13.5v-2q-23 41 -63 41q-2 0 -23 -4l2 2q-55 -12 -55 -61z" />
<glyph unicode="&#xda;" horiz-adv-x="1071" d="M-68 956q92 -100 156 -100q78 0 191 82q-33 -141 -48.5 -253t-15.5 -198q0 -512 328 -512q127 0 219 131q27 35 88 162q6 -176 8 -182q16 -170 94 -170q35 0 76 31q-57 39 -57 207v200l63 625q12 113 58 195l-5 26q-88 70 -135 70q-39 0 -57 -35q0 -29 6 -49v2 q8 -31 8 -127q0 -260 -75 -545q-41 -158 -99 -270q-88 -180 -192 -180q-123 0 -168 141h2q-27 88 -27 262q0 338 146 694q10 14 22 28.5t23 29.5q31 43 30 59q0 47 -133 90q-190 -426 -415 -426q-20 0 -91 12zM809 1604q0 -16 14 -37v2l21 -35l106 65q14 8 22.5 13.5 t12.5 7.5q66 41 66 80q0 51 -56 61l2 -2q-16 4 -20 4q-45 0 -70 -43q-37 -29 -43 -41q-55 -53 -55 -75z" />
<glyph unicode="&#xdb;" horiz-adv-x="1071" d="M-68 956q94 -100 156 -100q72 0 191 82q-33 -141 -48.5 -253t-15.5 -198q0 -512 328 -512q127 0 219 131q27 35 88 162q6 -176 8 -182q16 -170 94 -170q35 0 76 31q-57 39 -57 207v200l63 627q2 20 7.5 45t13.5 55q20 70 37 93l-5 26q-88 70 -135 70q-39 0 -57 -35 q0 -29 6 -49v2q8 -27 8 -127q0 -260 -75 -545q-41 -158 -99 -270q-88 -180 -192 -180q-123 0 -168 141h2q-27 88 -27 262q0 334 146 696q33 43 45 58q31 39 30 57q0 49 -133 90q-190 -426 -415 -426q-20 0 -91 12zM645 1618q0 -25 25 -37h8q20 0 76 55l4 2q25 27 45 27 q14 0 31 -23l-3 3q10 -18 18.5 -30.5t12.5 -21.5l6 -12q18 -37 47 -37l13 2q16 12 16 31v6q0 35 -57 119q-53 80 -76 80h-2q-25 0 -96 -60q-61 -66 -68 -92v-12z" />
<glyph unicode="&#xdc;" horiz-adv-x="1071" d="M-68 954q94 -98 156 -98q78 0 191 82q-33 -141 -48.5 -253t-15.5 -198q0 -512 328 -512q127 0 219 131q27 35 88 162q6 -176 8 -182q16 -170 94 -170q35 0 76 31q-57 39 -57 207v200l63 625q12 113 58 195l-5 26q-88 70 -135 70q-39 0 -57 -37q0 -27 6 -47v2 q8 -31 8 -129q0 -258 -75 -543q-41 -158 -99 -270q-88 -180 -192 -180q-123 0 -168 141h2q-27 88 -27 262q0 342 146 694q2 10 43 58q33 39 32 59q0 47 -133 90q-190 -426 -415 -426q-8 0 -30 3t-61 7zM621 1649q0 -39 27.5 -71t64.5 -32q63 0 63 94q0 92 -80 93 q-25 0 -50 -29t-25 -55zM795 1647q0 -39 27.5 -71t64.5 -32q63 0 63 94q0 92 -80 93q-25 0 -50 -29t-25 -55z" />
<glyph unicode="&#xdd;" horiz-adv-x="788" d="M-111 -317q0 -80 201 -158q172 -66 258 -66q166 0 281 172q100 152 100 332q0 68 -12 256q-4 63 -6 128t-2 130q0 322 30 516q10 66 25.5 140.5t38.5 162.5v7q0 68 -88 67h-6q-63 0 -68 -53q-20 -362 -55 -660q-18 -170 -88 -335q-96 -238 -211 -238q-139 0 -140 336 q0 436 58 659v11q25 123 24 120q-96 78 -114 78q-55 0 -56 -82q0 -10 1 -29.5t3 -48.5q0 -59 -6 -148t-16 -208t-16.5 -208t-6.5 -148q0 -416 285 -416q129 0 221 164q23 55 40.5 98t27.5 72q4 -84 6 -138.5t2 -80.5q0 -561 -324 -561q-72 0 -184 92q-115 92 -133 92 q-70 0 -70 -55zM422 1610q0 -16 14 -37v2l21 -33l106 64q12 8 20.5 12t12.5 8q68 43 68 80q0 53 -56 63l2 -2q-20 4 -22 5q-47 0 -68 -43q-35 -31 -43 -43q-55 -55 -55 -76z" />
<glyph unicode="&#xde;" horiz-adv-x="301" d="M-96 -6q0 -31 26 -31q25 0 50 43q8 14 12 19l14 -15l4 -6q33 -31 92 -31q138 0 138 207q0 80 -45 223t-45 226q0 10 12 57q6 55 6 45q0 57 -74 57q-43 0 -55 -32q-4 -39 -7 -65.5t-3 -43.5v-14q-23 -231 -74 -467q-2 -8 -9 -30.5t-20 -61.5q-23 -74 -22 -80zM12 133 q51 217 74 313q14 -39 16 -55q37 -127 37 -205q0 -131 -65 -131q-6 0 -16.5 8.5t-20.5 20.5t-17.5 25.5t-7.5 23.5z" />
<glyph unicode="&#xdf;" horiz-adv-x="376" d="M-86 -711q4 -16 18 -16q6 0 30 5t32 5q6 0 49 385q23 193 33 302.5t12 135.5q8 227 49 551q0 -55 35 -120l49 -93q-84 -145 -84 -266q0 -43 8 -67l-2 2q12 -55 48 -95.5t75 -40.5q84 0 125 134h-2q10 35 10 67q0 106 -71 240l4 8q90 16 90 43v8q-8 29 -31 39 q-14 4 -22.5 6t-12.5 4q-6 0 -15 -1t-19 -3q-35 -6 -43 -12q-51 94 -52 137q0 42 37 103q152 256 152 452v19q0 70 -36 122t-91 52q-106 2 -172 -250q-29 -111 -48.5 -226.5t-29.5 -240.5l-39 -465q-2 -29 -2 -51v-31l-16 -139q-6 -57 -10.5 -91t-6.5 -44q0 -6 -6 -62 q-6 -55 -4 -57zM139 682q19 170 56 352q12 53 36 125q35 96 60 96q20 0 31 -28l-3 2l3.5 -24.5t1.5 -14.5q0 -168 -115 -356q-57 -94 -70 -152zM215 190q0 88 49 156q33 -75 41 -110q6 -25 6 -58q0 -119 -41 -119q-29 0 -51 103q-2 10 -3 17t-1 11zM334 432q2 8 8 14h10 q-8 -4 -18 -14z" />
<glyph unicode="&#xe0;" d="M-41 242q0 -276 121 -277q82 0 131 135q45 -100 115 -100q76 0 157 272q72 240 72 306q0 49 -35 49q-33 0 -47 -62q-109 -471 -158 -471q-18 0 -28 53q-4 20 -6 38t-2 34v17q0 152 67 370l-76 25l-30 65q-27 57 -125 58q-55 0 -113 -222q-43 -170 -43 -262v-28zM-10 1176 q0 -47 55 -80v2q41 -23 37 -23l98 -61l25 26q14 20 14 39q0 23 -53 76q-12 12 -27.5 26.5t-19.5 18.5v-2q-23 41 -64 41q-4 0 -20 -4l2 2q-47 -12 -47 -61zM51 133q0 178 31 293q57 221 80 221q18 0 28 -80l21 -28l-21 -177q-6 -47 -43 -172q-33 -117 -63 -139q-16 4 -25 35 q-8 25 -8 47z" />
<glyph unicode="&#xe1;" d="M-41 242q0 -276 121 -277q82 0 131 135q45 -100 115 -100q76 0 157 272q72 240 72 306q0 49 -35 49q-33 0 -47 -62q-109 -471 -158 -471q-18 0 -28 53q-4 20 -6 38t-2 34v17q0 152 67 370l-76 25l-30 65q-27 57 -125 58q-55 0 -113 -222q-43 -170 -43 -262v-28zM51 133 q0 178 31 293q57 221 80 221q18 0 28 -80l21 -28l-21 -177q-6 -47 -43 -172q-33 -117 -63 -139q-16 4 -25 35q-8 25 -8 47zM231 1079q0 -18 17 -35v3l18 -35l105 63q12 8 20 12.5t12 8.5q64 39 64 80q0 51 -53 61l2 -2q-16 4 -21 4q-43 0 -67 -43l-41 -41q-55 -55 -56 -76z " />
<glyph unicode="&#xe2;" d="M-41 242q0 -276 121 -277q82 0 131 135q45 -100 115 -100q76 0 157 272q72 240 72 306q0 49 -35 49q-33 0 -47 -62q-109 -471 -158 -471q-18 0 -28 53q-4 20 -6 38t-2 34v17q0 152 67 370l-76 25l-30 65q-27 57 -125 58q-55 0 -113 -222q-43 -170 -43 -262v-28zM51 133 q0 178 31 293q57 221 80 221q18 0 28 -80l21 -28l-21 -177q-6 -47 -43 -172q-33 -117 -63 -139q-16 4 -25 35q-8 25 -8 47zM131 1094q0 -23 25 -35h8q18 0 72 53l4 4q25 25 45 25q18 0 30 -21l-2 2q14 -33 29 -51l4 -12q27 -39 47 -39l13 4q16 12 16 31v6q0 29 -55 113 q-53 84 -76 83h-2q-27 0 -92 -59q-61 -68 -66 -92v-12z" />
<glyph unicode="&#xe3;" d="M-41 242q0 -276 121 -277q82 0 131 135q45 -100 115 -100q76 0 157 272q72 240 72 306q0 49 -35 49q-33 0 -47 -62q-109 -471 -158 -471q-18 0 -28 53q-4 20 -6 38t-2 34v17q0 152 67 370l-76 25l-30 65q-27 57 -125 58q-55 0 -113 -222q-43 -170 -43 -262v-28zM51 133 q0 178 31 293q57 221 80 221q18 0 28 -80l21 -28l-21 -177q-6 -47 -43 -172q-33 -117 -63 -139q-16 4 -25 35q-8 25 -8 47zM82 1139q0 -55 29 -56q23 0 36 45q8 25 19 25q10 0 70 -55q63 -66 79 -74l2 -2q8 -6 23 -6q16 0 33.5 12t31 33.5t22.5 47.5t9 54q0 37 -33 62 q-12 -25 -18 -31q-37 -66 -47 -66q-6 0 -8 2q-41 33 -51.5 43.5t-16.5 20.5q-63 57 -100 57h-6q-4 -2 -9 -2q-66 -16 -65 -110z" />
<glyph unicode="&#xe4;" d="M-41 242q0 -276 121 -277q82 0 131 135q45 -100 115 -100q76 0 157 272q72 240 72 306q0 49 -35 49q-33 0 -47 -62q-109 -471 -158 -471q-18 0 -28 53q-4 20 -6 38t-2 34v17q0 154 67 368l-76 27l-30 65q-27 57 -125 58q-55 0 -113 -222q-43 -170 -43 -262v-28zM51 133 q0 182 31 293q61 221 80 221q18 0 28 -80l21 -30l-21 -175q-4 -41 -43 -172q-33 -117 -63 -139q-33 2 -33 82zM94 1110q0 -39 28 -70.5t64 -31.5q64 0 64 94q0 92 -80 92q-25 0 -50.5 -28.5t-25.5 -55.5zM268 1108q0 -39 28 -70.5t64 -31.5q64 0 64 94q0 92 -80 92 q-25 0 -50.5 -28.5t-25.5 -55.5z" />
<glyph unicode="&#xe5;" d="M-41 244q0 -279 121 -279q82 0 131 137q47 -102 115 -102q76 0 157 272q72 240 72 308q0 49 -35 49q-33 0 -47 -62q-109 -473 -158 -473q-18 0 -28 53q-4 20 -6 38t-2 34v19q0 154 67 368l-76 27l-30 65q-27 57 -125 58q-55 0 -113 -224q-43 -172 -43 -262v-26zM51 133 q0 199 70 434q25 82 41 82q18 0 28 -80l21 -30l-21 -174q-4 -35 -13 -76t-25 -90q-41 -127 -68 -148q-16 4 -25 35q-8 25 -8 47zM205 1139q0 -117 98 -117q66 0 121 82q53 78 53 143v13q-2 6 -2 12q-14 88 -98 88q-66 0 -119 -78t-53 -143zM295 1141v8q0 23 22 63 q20 43 45 43q14 0 21 -18v-10q0 -23 -25 -66h2q-25 -39 -51 -39q-12 0 -14 19z" />
<glyph unicode="&#xe6;" horiz-adv-x="909" d="M-43 238q0 -272 125 -273q82 0 135 133q45 -98 117 -98q61 0 129 174q45 -190 186 -190q74 0 121 59q78 102 152 399q28 121 28 133q0 43 -45 43q-25 0 -57 -122q-113 -432 -193 -433q-23 0 -51 35q-29 29 -29 60q20 33 40 68.5t40 76.5q86 178 86 332q0 47 -41 83 t-90 36q-78 0 -123 -191l-2 -8v2q-123 -465 -161 -465q-39 0 -39 123v16q18 195 71 363l-80 24l-30 66q-29 55 -127 55q-59 0 -117 -217q-45 -178 -45 -258v-26zM53 131q0 193 72 424q25 80 41 80q18 0 29 -78l22 -29l-22 -172q-4 -29 -14.5 -69.5t-26.5 -93.5 q-41 -121 -68 -142q-33 8 -33 80zM565 289q10 176 70 360q2 6 6 10q8 0 8 -45q0 -70 -37 -198q-18 -66 -47 -127z" />
<glyph unicode="&#xe7;" horiz-adv-x="309" d="M-14 297q0 -227 98 -285l-78 -114q-6 -18 -6 -31q8 -23 18 -33q6 0 11 -2h10q43 -8 47 -20q0 -16 -31 -25q-29 -14 -61 -20q-6 -16 -6 -29q0 -23 2 -27q6 -43 24 -43q23 0 23 23q0 -4 4 -4q37 0 92 43q57 39 57 77v7q-2 2 -2 6q-10 72 -69 104q2 11 53 74q76 14 139 180 q14 39 30.5 94.5t35.5 130.5q35 145 35 168q0 53 -35 54q-29 0 -43 -45h2q-6 -29 -10 -48.5t-9 -33.5q-90 -410 -180 -410q-55 0 -55 135q0 264 61 363q37 -25 64 -25q51 0 51 68q0 37 -37 84q-35 47 -71 47q-80 0 -134 -207q-31 -133 -30 -256z" />
<glyph unicode="&#xe8;" horiz-adv-x="360" d="M-61 1174q0 -41 61 -78q6 -4 9 -6.5t5 -4.5q8 -4 12.5 -6t6.5 -4l96 -61l25 26q14 20 14 39q0 23 -53 76q-41 41 -47 45v-2q-20 39 -60 39q-4 0 -16 -4v2q-53 -10 -53 -61zM-8 256q0 -104 39 -182q49 -96 143 -97q70 0 117 62q74 102 147 407q27 107 27 138q0 43 -43 43 q-25 0 -55 -127q-106 -438 -187 -439q-12 0 -25.5 9.5t-24.5 24t-19.5 31.5t-8.5 32q20 29 39 65.5t39 81.5q84 193 84 338q0 47 -39 84t-88 37q-84 0 -125 -232q-10 -70 -15 -138t-5 -138zM92 289q10 182 70 368q2 6 6 11q6 0 6 -47q0 -74 -35 -203q-10 -35 -21.5 -68 t-25.5 -61z" />
<glyph unicode="&#xe9;" horiz-adv-x="358" d="M-8 256q0 -104 39 -182q49 -96 143 -97q68 0 115 62q74 102 145 407q27 109 27 138q0 43 -43 43q-23 0 -53 -127q-106 -438 -187 -439q-23 0 -49 33q-27 33 -27 64q20 33 39 69.5t37 77.5q84 193 84 338q0 49 -39 85t-88 36q-82 0 -123 -232q-10 -70 -15 -138t-5 -138z M92 289q8 180 68 368q2 6 6 11q8 0 8 -47q0 -72 -37 -203q-10 -35 -21.5 -68t-23.5 -61zM227 1079q0 -14 17 -37v2l18 -32l103 63q31 20 30 21q66 43 66 78q0 51 -53 61l2 -2q-20 4 -21 4q-45 0 -67 -41l-41 -41q-53 -53 -54 -76z" />
<glyph unicode="&#xea;" horiz-adv-x="358" d="M-8 256q0 -104 39 -182q49 -96 143 -97q68 0 115 62q74 102 145 407q27 109 27 138q0 43 -43 43q-23 0 -53 -127q-106 -438 -187 -439q-23 0 -47 35q-29 29 -29 62q20 33 39 69.5t37 77.5q84 193 84 338q0 49 -39 85t-88 36q-82 0 -123 -232q-10 -70 -15 -138t-5 -138z M92 289q8 178 68 368q2 8 6 13q8 0 8 -49q0 -72 -37 -203q-10 -35 -21.5 -68t-23.5 -61zM104 1094q0 -27 25 -35h6q18 0 72 53l4 4q25 25 43 25q16 0 31 -21l-2 2q8 -18 28 -53l6 -10q20 -39 45 -39l11 4q18 12 18 31v4q0 29 -55 119q-49 78 -74 77h-2q-31 0 -90 -59 t-66 -90v-12z" />
<glyph unicode="&#xeb;" horiz-adv-x="358" d="M-8 256q0 -104 39 -182q49 -96 143 -97q68 0 115 62q74 102 145 407q27 109 27 138q0 43 -43 43q-23 0 -53 -127q-106 -438 -187 -439q-20 0 -49 35q-27 33 -27 60q20 35 40 71.5t36 77.5q84 190 84 338q0 49 -39 85t-88 36q-84 0 -123 -234q-10 -70 -15 -138t-5 -136z M63 1110q0 -39 28 -70.5t65 -31.5q63 0 63 94q0 92 -80 92q-25 0 -50.5 -28.5t-25.5 -55.5zM92 289q10 180 68 366q2 8 6 13q8 0 8 -47q0 -72 -37 -203q-10 -35 -21.5 -68t-23.5 -61zM238 1108q0 -39 27.5 -70.5t64.5 -31.5q63 0 63 94q0 92 -80 92q-25 0 -50 -28.5 t-25 -55.5z" />
<glyph unicode="&#xec;" horiz-adv-x="247" d="M-115 1174q0 -41 62 -80l-2 2q8 -8 18 -11q10 -4 15 -7l6 -3l90 -61l24 24q12 25 13 41q0 23 -52 74l-45 47q-23 37 -57 37q-4 0 -20 -4l2 2q-53 -12 -54 -61zM-8 217q0 -76 22 -137q35 -78 101 -78q68 0 108 98q10 23 25.5 72t38.5 125q65 226 65 283q0 47 -35 47 q-33 0 -47 -64q-10 -51 -22 -94t-23 -80q-23 -76 -37 -125t-20 -71q-29 -92 -49 -93q-37 0 -37 115q0 133 35 303q4 23 8 39t6 25q4 23 7 36t5 21q0 47 -67 47q-33 0 -58 -27q0 -35 -3 -91t-11 -132q-12 -152 -12 -219z" />
<glyph unicode="&#xed;" horiz-adv-x="243" d="M-6 217q0 -215 119 -215q70 0 125 152q4 14 15 49t28 94q65 234 65 283q0 47 -35 47q-33 0 -45 -64q-8 -37 -18 -80t-27 -94q-23 -76 -37 -125t-20 -71q-29 -92 -47 -93q-37 0 -37 115q0 133 35 303q25 117 26 121q0 47 -67 47q-31 0 -56 -27q0 -74 -12 -221t-12 -221z M139 1079q0 -23 15 -37v2l18 -32l100 63l31 19q64 39 64 80q0 51 -54 61l2 -2q-16 4 -20 4q-41 0 -64 -41l-26 -27q-4 -6 -15 -16q-51 -51 -51 -74z" />
<glyph unicode="&#xee;" horiz-adv-x="241" d="M-6 219q0 -217 119 -217q63 0 104 98q14 39 62 197q65 228 65 283q0 47 -35 47q-31 0 -45 -64q-25 -106 -43 -174l-57 -196q-29 -92 -49 -93q-35 0 -35 115q0 123 35 303q8 41 14 70.5t10 50.5q0 47 -65 47q-31 0 -56 -27q0 -74 -12 -221q-12 -145 -12 -219zM4 1094 q0 -25 23 -37h8q16 0 69 53l5 4q27 27 43 27q12 0 28 -23l-2 2q20 -33 27 -51l6 -12q25 -37 45 -37l10 4q16 12 17 29v6q0 31 -52 112q-49 84 -73 84h-2q-33 0 -88 -59q-53 -57 -64 -92v-10z" />
<glyph unicode="&#xef;" horiz-adv-x="247" d="M-55 1110q0 -39 27.5 -70.5t60.5 -31.5q63 0 63 94q0 92 -80 92q-20 0 -45.5 -28.5t-25.5 -55.5zM-6 217q0 -215 119 -215q66 0 106 98q10 25 25.5 74t38.5 123q63 209 63 281q0 49 -35 49q-31 0 -45 -64q-25 -106 -43 -174l-57 -196q-29 -92 -49 -93q-37 0 -37 113 q0 68 9 142.5t26 160.5q10 53 17 84t9 37q0 49 -67 49q-31 0 -56 -27q0 -74 -12 -221t-12 -221zM115 1108q0 -39 27.5 -70.5t64.5 -31.5q63 0 63 94q0 92 -80 92q-25 0 -50 -28.5t-25 -55.5z" />
<glyph unicode="&#xf0;" horiz-adv-x="376" d="M-20 106q0 -33 30 -32q12 0 45 26q82 -125 158 -125q94 0 190 287q78 244 78 318q0 49 -37 49q-31 0 -43 -58v2q-8 -33 -13 -57t-9 -45l2 2q0 -8 -8 -16q-100 -377 -158 -377q-23 0 -57 41q-29 41 -33 69q39 74 43 99q176 406 176 915q0 193 -141 193q-74 0 -84 -152l2 2 q-115 -373 -115 -887q0 -37 4 -76.5t13 -84.5q-43 -78 -43 -93zM102 428q0 360 138 823q10 -41 10 -129q0 -418 -144 -762q-2 18 -3 35t-1 33z" />
<glyph unicode="&#xf1;" horiz-adv-x="544" d="M20 526l19 -39l-6 -67q-2 -23 -3 -41.5t-1 -34.5q0 -4 1 -25.5t3 -60.5l8 -152q14 -98 92 -98q57 0 78 101q16 76 33.5 142t34.5 124q4 -82 10 -136.5t10 -82.5q31 -156 117 -156q70 0 166 301q67 216 67 277q0 49 -35 49t-49 -76q-8 -39 -23.5 -98.5t-41.5 -145.5 q-59 -197 -92 -196q-35 0 -35 194q0 23 5 84.5t15 165.5q8 86 2 115h19q0 74 -123 84q-23 -16 -60 -197q-23 -111 -34 -165t-13 -58l2 2q-14 -47 -24 -87t-19 -69v2q-10 -31 -6 -37q-10 10 -10 123v43q0 29 2 64t2 61v45q0 12 12 56q12 43 13 59q0 57 -58 57q-49 0 -65 -47 v2q-10 -29 -13 -82zM82 1139q0 -55 29 -56q25 0 36 43q8 27 19 27q27 0 57 -47q66 -68 94 -82l2 -2q8 -6 21 -6q33 0 66 45t32 100q0 39 -35 62q-10 -23 -16 -29q-37 -66 -49 -66q-6 0 -8 2q-41 31 -52.5 43.5t-13.5 18.5q-63 57 -102 57h-6q-4 -2 -9 -2q-66 -16 -65 -108z " />
<glyph unicode="&#xf2;" horiz-adv-x="475" d="M-61 1174q0 -47 77 -89q16 -10 17 -10l98 -61l25 24q14 27 14 41q0 20 -55 76l-45 45v-2q-27 39 -62 39q2 0 -18 -4l2 2q-53 -12 -53 -61zM0 297q0 -311 160 -311q68 0 112 69h-2q20 39 56 140q2 10 3 14t1 6q10 51 12 59q45 -16 53 -16q82 0 142 129q45 99 45 203 q0 37 -37 37q-35 0 -43 -52q-25 -127 -37 -153q-29 -66 -84 -66q-10 0 -29 13q0 227 -16 282q-16 57 -78 101q-63 47 -115 47q-66 0 -86 -82l-6 -25q-16 -72 -24 -90q0 -23 2 -36l2 -13q-31 -84 -31 -256zM104 274q0 41 7.5 100.5t21.5 139.5q29 170 51 170q43 0 43 -49 q0 -4 -1 -15.5t-3 -27.5t-2 -29v-16q0 -23 3 -54.5t12 -72.5q8 -41 12 -71.5t4 -53.5q0 -47 -43 -148q-29 -68 -39 -67q-66 0 -66 194z" />
<glyph unicode="&#xf3;" horiz-adv-x="473" d="M0 297q0 -311 160 -311q66 0 110 69h-2q20 39 56 140q2 10 3 14t1 6q4 23 7 37t5 22q39 -16 51 -16q82 0 141 129q46 99 46 203q0 37 -37 37q-33 0 -41 -52q-29 -135 -39 -153q-25 -66 -82 -66q-14 0 -29 13q0 223 -18 282q-16 53 -76 101q-59 47 -115 47q-63 0 -84 -82 l-6 -25q-4 -14 -6 -27.5t-4 -25.5q-8 -8 -14 -37q0 -23 2 -36l2 -13q-31 -84 -31 -256zM102 274q0 39 6.5 98.5t20.5 137.5q31 174 55 174q41 0 41 -49q0 -4 -1 -15.5t-3 -27.5t-2 -29v-16q0 -23 3 -54.5t11 -72.5q17 -88 17 -125q0 -43 -43 -148q-29 -68 -39 -67 q-66 0 -66 194zM231 1079q0 -16 15 -37v2l20 -32l103 63q14 8 22 14.5t10 6.5q66 43 66 78q0 51 -53 61l2 -2q-20 4 -23 4q-43 0 -65 -41q-10 -10 -21.5 -20.5t-21.5 -20.5q-53 -53 -54 -76z" />
<glyph unicode="&#xf4;" horiz-adv-x="473" d="M0 297q0 -311 160 -311q66 0 110 69h-2q20 39 56 140q2 10 3 14t1 6q4 23 7 37t5 22q39 -16 51 -16q82 0 141 129q46 99 46 203q0 37 -37 37q-33 0 -41 -52q-29 -135 -39 -153q-25 -66 -82 -66q-14 0 -29 13q0 223 -18 282q-16 53 -76 101q-59 47 -115 47q-63 0 -84 -82 l-6 -25q-4 -14 -6 -26.5t-4 -26.5q-8 -8 -14 -35q0 -25 2 -39t2 -12q-31 -84 -31 -256zM102 274q0 39 6.5 98.5t20.5 137.5q31 174 55 174q41 0 41 -49q0 -4 -1 -15.5t-3 -27.5t-2 -29v-16q0 -23 3 -54.5t11 -72.5q17 -88 17 -125q0 -43 -43 -148q-29 -68 -39 -67 q-66 0 -66 194zM129 1094q0 -25 27 -37h6q18 0 74 55l4 4q25 25 43 25q14 0 30 -23l-2 2q23 -43 29 -51l6 -12q25 -37 45 -37l12 4q16 10 17 29v6q0 33 -55 119q-53 78 -74 77h-2q-33 0 -90 -57q-57 -53 -70 -92v-12z" />
<glyph unicode="&#xf5;" horiz-adv-x="473" d="M0 297q0 -311 160 -311q66 0 110 69h-2q20 39 56 140q2 10 3 14t1 6q4 23 7 37t5 22q39 -16 51 -16q82 0 141 129q46 99 46 203q0 37 -37 37q-33 0 -41 -52q-29 -135 -39 -153q-25 -66 -82 -66q-14 0 -29 13q0 223 -18 282q-16 53 -76 101q-59 47 -115 47q-63 0 -84 -82 l-6 -25q-4 -14 -6 -26.5t-4 -26.5q-8 -8 -14 -37q0 -23 2 -36l2 -13q-31 -84 -31 -256zM82 1139q0 -55 29 -56q20 0 36 43q8 27 17 27q25 0 57 -45q43 -49 94 -84l2 -2q8 -6 21 -6q16 0 33.5 12t32 33.5t23.5 47.5t9 54q0 33 -35 62q-6 -12 -10 -19.5t-6 -11.5 q-41 -66 -49 -66q-4 0 -6 2q-20 14 -32.5 24.5t-21.5 19.5q-4 10 -14 18q-63 57 -102 57q-6 -2 -13 -2q-66 -16 -65 -108zM102 274q0 39 6.5 98.5t20.5 137.5q31 174 55 174q41 0 41 -49q0 -4 -1 -15.5t-3 -27.5t-2 -29v-16q0 -23 3 -54.5t11 -72.5q17 -88 17 -125 q0 -43 -43 -148q-29 -68 -39 -67q-66 0 -66 194z" />
<glyph unicode="&#xf6;" horiz-adv-x="473" d="M0 297q0 -311 160 -311q66 0 110 69h-2q20 39 56 140q2 10 3 14t1 6q4 23 7 37t5 22q39 -16 51 -16q86 0 141 127q46 99 46 203q0 39 -37 39q-33 0 -41 -52q-29 -135 -39 -153q-25 -66 -82 -66q-14 0 -29 13q0 225 -16 280q-16 57 -78 101q-66 49 -115 49q-61 0 -84 -84 l-6 -23q-10 -41 -10 -53q-8 -8 -14 -37q0 -23 2 -36l2 -13q-31 -84 -31 -256zM63 1110q0 -39 28 -70.5t65 -31.5q63 0 63 94q0 92 -80 92q-25 0 -50.5 -28.5t-25.5 -55.5zM102 274q0 70 29 238q31 172 53 172q41 0 41 -49q0 -14 -3 -44t-3 -44q0 -23 3 -54.5t11 -72.5 q17 -88 17 -125q0 -43 -43 -148q-29 -68 -39 -67q-66 0 -66 194zM238 1108q0 -39 27.5 -70.5t64.5 -31.5q63 0 63 94q0 92 -80 92q-25 0 -50 -28.5t-25 -55.5z" />
<glyph unicode="&#xf7;" horiz-adv-x="1181" d="M104 453h1012v133h-1012v-133zM481 102q0 -51 38 -88t93 -37q49 0 87 38t38 87q0 51 -37.5 91t-89.5 40q-51 0 -90 -37.5t-39 -93.5zM481 936q0 -51 39 -91t92 -40q49 0 87 41t38 90q0 51 -37.5 90t-89.5 39q-51 0 -90 -38t-39 -91z" />
<glyph unicode="&#xf8;" horiz-adv-x="559" d="M-37 227l47 -71l70 53q20 -223 158 -223q68 0 112 69h-2q18 27 55 135q2 10 3.5 14.5t1.5 6.5q4 23 8 36t6 21q31 -14 51 -14q86 0 135 115q53 129 54 211q0 37 -37 36q-35 0 -43 -51q-25 -121 -39 -149q-25 -66 -82 -66q-14 0 -29 12v66q0 27 -2 37l117 86l-51 72 l-70 -50q-4 51 -10 66h2q-23 51 -80 98q-66 47 -117 47q-66 0 -86 -82l-6 -22q-4 -20 -6 -32.5t-4 -20.5q-8 -8 -15 -35q0 -23 2 -36l3 -13q-29 -66 -31 -228zM182 268v17l142 100q6 -41 6 -94t-43 -148q-29 -66 -39 -65q-66 0 -66 190zM193 401q12 58 18 103q27 168 51 168 q43 0 43 -49q0 2 -1 -8.5t-3 -32.5q-2 -6 -2 -43q0 -10 1 -24.5t3 -31.5z" />
<glyph unicode="&#xf9;" horiz-adv-x="534" d="M-61 1174q0 -47 77 -89q16 -10 17 -10l98 -61l27 24q12 33 12 41q0 27 -53 76q-14 12 -25.5 23.5l-21.5 21.5v-2q-25 39 -62 39q2 0 -18 -4l2 2q-53 -12 -53 -61zM14 166q0 -68 27 -119q33 -61 94 -61t96 53q12 27 24.5 53.5t25.5 52.5l20 -51v2q39 -76 90 -76 q94 0 180 273q66 213 66 278q0 43 -35 43q-29 0 -43 -43q-16 -63 -33.5 -124.5t-33.5 -122.5q-59 -201 -95 -201q-37 0 -37 164q0 29 4.5 74t12.5 104v-2q18 125 18 147q25 63 25 74q0 51 -76 51q-57 1 -57 -65q0 -4 2 -11.5t2 -11.5q0 -76 -21 -176l-37 -184 q-23 -104 -61 -181v3q-25 -39 -37 -39q-18 0 -18 65q0 100 6 190.5t20 168.5l-2 -2q4 16 8.5 27t6.5 20v-2q8 18 8 49q0 29 -21.5 51t-48.5 22q-33 0 -51 -28q-29 -47 -29 -465z" />
<glyph unicode="&#xfa;" horiz-adv-x="530" d="M14 166q0 -68 27 -119q33 -61 94 -61t96 53q12 27 24.5 53.5t25.5 52.5l20 -51v2q39 -76 90 -76q94 0 180 273q66 213 66 278q0 43 -35 43q-29 0 -43 -43q-16 -63 -33.5 -124.5t-33.5 -122.5q-59 -201 -95 -201q-37 0 -37 164q0 29 4.5 74t12.5 104v-2q18 125 18 147 q25 63 25 74q0 51 -76 51q-57 1 -57 -65q0 -4 2 -11.5t2 -11.5q0 -76 -21 -176l-37 -184q-23 -104 -61 -181v3q-25 -39 -37 -39q-18 0 -18 65q0 100 6 190.5t20 168.5l-2 -2q4 16 8.5 27t6.5 20v-2q8 18 8 49q0 29 -21.5 51t-48.5 22q-33 0 -51 -28q-29 -47 -29 -465z M233 1079q0 -23 15 -37v2l18 -32l105 63q14 8 18 12q12 6 14 9q66 37 66 78q0 51 -53 61l2 -2q-20 4 -23 4q-45 0 -67 -41l-41 -41q-53 -53 -54 -76z" />
<glyph unicode="&#xfb;" horiz-adv-x="530" d="M14 166q0 -68 27 -119q33 -61 94 -61t96 53q12 27 24.5 53.5t25.5 52.5l20 -51v2q39 -76 90 -76q94 0 180 273q66 213 66 278q0 43 -35 43q-29 0 -43 -43q-16 -63 -33.5 -124.5t-33.5 -122.5q-59 -201 -95 -201q-37 0 -37 164q0 29 4.5 74t12.5 104v-2q18 125 18 147 q25 63 25 74q0 51 -76 51q-57 1 -57 -65q0 -4 2 -11.5t2 -11.5q0 -76 -21 -176l-37 -184q-23 -104 -61 -181v3q-25 -39 -37 -39q-18 0 -18 65q0 100 6 190.5t20 168.5l-2 -2q4 16 8.5 27t6.5 20v-2q8 18 8 49q0 29 -21.5 51t-48.5 22q-33 0 -51 -28q-29 -47 -29 -465z M111 1094q0 -25 26 -37h6q18 0 74 55l4 4q25 25 43 25q20 0 31 -23v2q4 -10 11 -22.5t18 -28.5l4 -12q27 -37 47 -37l12 4q16 12 16 29v6q0 31 -53 115q-51 82 -78 81h-2q-33 0 -90 -57t-69 -92v-12z" />
<glyph unicode="&#xfc;" horiz-adv-x="530" d="M14 166q0 -68 27 -119q33 -61 94 -61t96 53q12 27 24.5 53.5t25.5 52.5l20 -51v2q39 -76 90 -76q94 0 180 273q66 213 66 278q0 43 -35 43q-29 0 -43 -43q-16 -63 -33.5 -124.5t-33.5 -122.5q-59 -201 -95 -201q-37 0 -37 164q0 29 4.5 74t12.5 104v-2q18 125 18 147 q25 63 25 74q0 51 -76 51q-57 1 -57 -65q0 -4 2 -11.5t2 -11.5q0 -76 -21 -176l-37 -184q-23 -104 -61 -181v3q-25 -39 -37 -39q-18 0 -18 65q0 100 6 190.5t20 168.5l-2 -2q4 16 8.5 27t6.5 20v-2q8 18 8 49q0 29 -21.5 51t-48.5 22q-33 0 -51 -28q-29 -47 -29 -465z M63 1110q0 -39 28 -70.5t65 -31.5q63 0 63 94q0 92 -80 92q-25 0 -50.5 -28.5t-25.5 -55.5zM238 1108q0 -39 27.5 -70.5t64.5 -31.5q63 0 63 94q0 92 -80 92q-25 0 -50 -28.5t-25 -55.5z" />
<glyph unicode="&#xfd;" horiz-adv-x="466" d="M-182 35q0 -35 63 -35q55 0 119 180q10 -195 137 -194q45 0 80 41q14 20 43 86q8 -47 11 -108.5t5 -137.5q-125 -29 -256 -129q-180 -137 -180 -295q0 -109 70 -178q68 -72 164 -72q307 0 307 479q0 25 -3 71t-3 71q78 23 98 22q41 0 111 -14l20 8q10 16 10 29 q0 68 -106 67q-29 0 -92 -18q-14 0 -34 -6l-20 -6l-2 61q-4 150 -6 178v98q0 238 17 304q41 160 41 202q0 45 -45 45h-9q-61 0 -69 -69q-16 -131 -27.5 -222.5t-17.5 -142.5v4q-74 -289 -107 -288q-33 0 -33 143q0 39 4.5 99.5t12.5 142.5l20 204v7q0 43 -47 43 q-74 0 -74 -154q-10 -66 -28 -134.5t-43 -140.5q-66 -190 -86 -190q-45 -20 -45 -51zM-61 -575q0 121 114 225q98 90 230 129v-119q0 -131 -47 -244q-59 -141 -179 -141q-49 0 -83.5 44t-34.5 106zM236 1092q0 -12 16 -35v2l18 -35l107 63q12 8 20.5 12.5t12.5 8.5 q65 41 65 80q0 53 -55 63l2 -2q-16 4 -21 4q-47 0 -67 -43l4 4l-4 -4l-27 -26q-6 -4 -16 -15q-55 -55 -55 -77z" />
<glyph unicode="&#xfe;" horiz-adv-x="684" d="M43 -2q0 -43 49 -43h23q27 125 46 231.5t36 198.5q27 152 26 170q0 25 -4 45h2l6 12q18 -14 33.5 -26.5t26.5 -24.5l-4 -397q0 -55 34 -109q39 -55 95 -55q123 0 209 522q12 69 12 51q0 6 -4 7q0 41 -37 41q-43 0 -43 -68q0 -72 -76 -320h2q-49 -147 -67 -147 q-35 0 -35 84l6 18v23q0 55 12 166q12 113 12 170t-81 108q-80 51 -80 54q0 18 3 54t3 54q0 96 -60 96q-68 0 -67 -116q0 -47 31 -129q-33 -365 -80 -586q0 -6 -5.5 -17.5t-10.5 -24.5t-9 -24.5t-4 -17.5z" />
<glyph unicode="&#xff;" horiz-adv-x="466" d="M-182 35q0 -35 63 -35q55 0 119 180q10 -195 137 -194q45 0 80 41q14 20 43 86q8 -47 11 -108.5t5 -137.5q-117 -27 -256 -129q-180 -131 -180 -295q0 -109 70 -178q68 -72 164 -72q307 0 307 479q0 25 -3 71t-3 71q78 23 98 22q41 0 111 -14l20 8q10 16 10 29 q0 68 -106 67q-29 0 -92 -18q-14 0 -34 -6l-20 -6l-2 61q-4 150 -6 178v98q0 238 17 304q41 160 41 202q0 45 -45 45h-9q-61 0 -69 -69q-16 -131 -27.5 -222.5t-17.5 -142.5v4q-74 -289 -107 -288q-33 0 -33 143q0 39 4.5 99.5t12.5 142.5l20 204v7q0 43 -47 43 q-49 0 -71 -109q-2 -8 -3 -45q-10 -66 -28 -134.5t-43 -140.5q-66 -190 -86 -190q-45 -20 -45 -51zM-61 -575q0 121 114 225q98 90 230 129v-119q0 -131 -47 -244q-59 -141 -179 -141q-49 0 -83.5 44t-34.5 106zM63 1110q0 -39 28 -70.5t65 -31.5q63 0 63 94q0 92 -80 92 q-25 0 -50.5 -28.5t-25.5 -55.5zM238 1108q0 -39 27.5 -70.5t64.5 -31.5q63 0 63 94q0 92 -80 92q-25 0 -50 -28.5t-25 -55.5z" />
<glyph unicode="&#x152;" horiz-adv-x="1904" d="M0 489q0 -211 98 -352q113 -162 314 -162q215 0 338 246q145 -244 573 -244q141 0 344 60q262 84 262 199q0 61 -110 61v-68q-37 -20 -66 -35.5t-49 -25.5t-65.5 -22.5t-116.5 -22.5q-117 -18 -191 -19q-190 0 -332 52q-186 63 -190 213q14 53 25 108q63 121 278 205 q186 74 358 74q16 0 66 -31q55 20 55 72v10q0 45 -39 72h-26q-43 0 -135 -7h2q-16 0 -41 -2t-60 -6q-68 -6 -102 -6q-86 0 -156 25h2q-90 35 -90 90q0 143 289 227q215 59 426 60q47 0 86 -17l-2 2q49 -37 72 -59q53 0 53 80q0 82 -86 110l2 -2q-45 16 -135 17 q-250 0 -477 -74q-293 -94 -322 -283q-59 371 -406 393q-12 0 -26 -6q-29 12 -45 13q-55 0 -107 -68q-268 -342 -268 -877zM145 494q0 227 95 503q111 330 249 330q150 0 216 -166q47 -117 47 -291q0 -797 -355 -796q-252 0 -252 420zM858 664q4 37 6 86t2 110q0 41 -2 47 q20 -42 51 -71q39 -39 111 -64q-51 -29 -92 -55.5t-76 -52.5z" />
<glyph unicode="&#x153;" horiz-adv-x="935" d="M0 293q0 -307 164 -307q68 0 112 69h-2q27 37 58 135q2 10 3 14.5t1 6.5q4 23 8 36t6 21q31 -14 53 -14q43 0 76 27v-25q0 -104 45 -180q55 -92 150 -92q74 0 121 59q78 102 151 399q29 122 29 136q0 43 -45 43q-25 0 -58 -125q-113 -432 -192 -433q-23 0 -51 35 q-29 29 -29 60q31 49 80 145q86 174 86 332q0 49 -40 84t-91 35q-70 0 -115 -160h2l-2 -6q-8 -8 -8 -25v2q-25 -133 -39 -149q-25 -66 -84 -66q-14 0 -29 12q0 231 -20 281q-10 27 -30.5 53.5t-48.5 46t-57.5 31.5t-58.5 12q-66 0 -86 -81l-6 -25q-8 -33 -12 -53 q-8 -8 -14 -35q0 -31 1 -38t3 -9q-31 -84 -31 -252zM106 268q0 37 6.5 95.5t20.5 136.5q31 172 55 172q43 0 43 -47q0 -4 -1 -15.5t-3 -27.5t-2 -29v-14q0 -37 17 -125q16 -88 16 -123q0 -49 -45 -148q-29 -66 -41 -65q-66 0 -66 190zM590 289q10 174 69 360q2 8 7 13 q8 -1 8 -48q0 -68 -37 -198q-10 -41 -22.5 -73t-24.5 -54z" />
<glyph unicode="&#x178;" horiz-adv-x="788" d="M-111 -317q0 -80 201 -158q172 -66 258 -66q166 0 281 172q100 152 100 332q0 68 -12 256q-4 63 -6 128t-2 130q0 322 30 516q10 66 25.5 140.5t38.5 162.5v7q0 68 -88 67h-6q-66 0 -68 -55q-23 -360 -55 -658q-18 -168 -88 -335q-96 -238 -211 -238q-139 0 -140 336 q0 436 58 659q2 4 2 8v-2q0 2 10 54q12 49 12 69q-92 80 -114 80q-55 0 -56 -84q0 -6 1 -18t1 -25q0 -12 1 -21.5t1 -11.5q0 -59 -6 -148t-16 -208t-16.5 -208t-6.5 -148q0 -416 285 -416q129 0 221 164q23 55 40.5 98t27.5 72q4 -84 6 -138.5t2 -80.5q0 -561 -324 -561 q-72 0 -184 92q-115 92 -133 92q-70 0 -70 -55zM293 1649q0 -39 27.5 -71t64.5 -32q64 0 64 94q0 92 -80 93q-25 0 -50.5 -29t-25.5 -55zM467 1647q0 -39 27.5 -71t64.5 -32q64 0 64 94q0 92 -80 93q-25 0 -50.5 -29t-25.5 -55z" />
<glyph unicode="&#x2c6;" horiz-adv-x="337" d="M98 940q0 -20 23 -31h8q20 0 68 47l2 2q23 23 41 23t28 -18v2q18 -35 27 -45l4 -11q25 -33 43 -32l10 4q16 6 17 24v6q-4 27 -50 99q-45 70 -71 69h-2q-29 0 -86 -51q-55 -49 -62 -78v-10z" />
<glyph unicode="&#x2dc;" horiz-adv-x="428" d="M78 977q0 -49 28 -49q20 0 35 39q10 23 17 22q25 0 53 -41q27 -25 49.5 -42t40.5 -27l2 -2q8 -6 21 -7q16 0 32.5 11.5t29.5 29t21.5 40t8.5 46.5q0 33 -33 52q-10 -23 -16 -25q-35 -55 -45 -55h-9q-23 6 -49 39l-14 14q-61 49 -96 49q-76 0 -76 -94z" />
<glyph unicode="&#x2000;" horiz-adv-x="942" />
<glyph unicode="&#x2001;" horiz-adv-x="1884" />
<glyph unicode="&#x2002;" horiz-adv-x="942" />
<glyph unicode="&#x2003;" horiz-adv-x="1884" />
<glyph unicode="&#x2004;" horiz-adv-x="628" />
<glyph unicode="&#x2005;" horiz-adv-x="471" />
<glyph unicode="&#x2006;" horiz-adv-x="314" />
<glyph unicode="&#x2007;" horiz-adv-x="314" />
<glyph unicode="&#x2008;" horiz-adv-x="235" />
<glyph unicode="&#x2009;" horiz-adv-x="376" />
<glyph unicode="&#x200a;" horiz-adv-x="104" />
<glyph unicode="&#x2010;" horiz-adv-x="548" d="M92 264q0 -23 43 -22h12q68 6 80 6q135 6 222 6q86 14 86 55q0 23 -33 23q-2 0 -23 -4l4 2q-18 -2 -28.5 -3t-12.5 -1h4q-8 0 -14 -2q-14 0 -39.5 -1t-64.5 -4q-20 -2 -37 -2h-33h-10q-16 0 -30.5 -1t-24.5 -3q-23 -2 -33 -3t-13 -1q-55 -10 -55 -45z" />
<glyph unicode="&#x2011;" horiz-adv-x="548" d="M92 264q0 -23 43 -22h12q68 6 80 6q135 6 222 6q86 14 86 55q0 23 -33 23q-2 0 -23 -4l4 2q-18 -2 -28.5 -3t-12.5 -1h4q-8 0 -14 -2q-14 0 -39.5 -1t-64.5 -4q-20 -2 -37 -2h-33h-10q-16 0 -30.5 -1t-24.5 -3q-23 -2 -33 -3t-13 -1q-55 -10 -55 -45z" />
<glyph unicode="&#x2012;" horiz-adv-x="548" d="M92 264q0 -23 43 -22h12q68 6 80 6q135 6 222 6q86 14 86 55q0 23 -33 23q-2 0 -23 -4l4 2q-18 -2 -28.5 -3t-12.5 -1h4q-8 0 -14 -2q-14 0 -39.5 -1t-64.5 -4q-20 -2 -37 -2h-33h-10q-16 0 -30.5 -1t-24.5 -3q-23 -2 -33 -3t-13 -1q-55 -10 -55 -45z" />
<glyph unicode="&#x2013;" horiz-adv-x="575" d="M8 264q0 -23 43 -22h15l13 1t40 3q14 2 20 2h6q174 6 369 6q88 14 88 55q0 23 -33 23q-6 0 -22 -4l2 2q-47 -6 -53 -6l-265 -7h-63q-80 0 -105 -8h3q-57 -8 -58 -45z" />
<glyph unicode="&#x2014;" horiz-adv-x="1185" d="M51 264q0 -23 45 -22h15q-2 0 12 1t43 3q14 2 20 2h9l745 6h168q90 16 90 55q0 23 -33 23q-4 0 -24 -4l2 2q-70 -8 -160 -12.5t-207 -4.5h-92h-211q-84 0 -131 2q-53 2 -84 2h-41q-41 -2 -67.5 -4t-40.5 -4h2q-59 -10 -60 -45z" />
<glyph unicode="&#x2018;" horiz-adv-x="208" d="M23 1239q0 -39 32 -143q16 -57 30.5 -107.5t25.5 -91.5q2 -33 43 -33q43 0 43 35v10q-66 229 -86 314q-8 39 -64 39h-24v-23z" />
<glyph unicode="&#x2019;" horiz-adv-x="206" d="M66 971q2 -49 43 -49q29 0 59 96v-2q65 143 65 190q0 43 -67 90q-33 -121 -57.5 -201.5t-42.5 -123.5z" />
<glyph unicode="&#x201a;" horiz-adv-x="206" d="M66 -37q2 -49 43 -49q29 0 59 92v-4q65 144 65 191q0 43 -67 90q-76 -268 -100 -320z" />
<glyph unicode="&#x201c;" horiz-adv-x="442" d="M92 1251q0 -31 37 -147q25 -78 39 -126t18 -71q6 -33 45 -33q49 0 50 41v7q-35 119 -57.5 196.5t-35.5 118.5q-12 39 -96 39v-25zM178 1333q20 -86 43 -177t49 -189v2q6 -39 39 -41q10 2 17 2h24l17 24q-18 76 -38 146.5t-40 140.5v-2q-16 68 -31 80q-14 14 -80 14z" />
<glyph unicode="&#x201d;" d="M86 956q0 -45 45 -45q27 0 86 133q80 183 86 224v2q0 25 -59 61q-63 -172 -64 -176q-94 -168 -94 -199zM180 913q0 -41 39 -41q25 0 53 54l50 94q20 41 24 51q20 41 32.5 84t20.5 84v6q0 18 -59 60q-63 -141 -66 -168l-61 -133q-33 -68 -33 -91z" />
<glyph unicode="&#x201e;" d="M86 -70q0 -45 45 -45q27 0 86 127q80 178 86 221v5q0 25 -59 61q-63 -172 -64 -176q-94 -156 -94 -193zM180 -113q0 -41 39 -41q29 0 53 52q51 100 74 141q35 74 53 168v6q0 18 -59 59q-63 -141 -66 -168l-61 -127q-33 -68 -33 -90z" />
<glyph unicode="&#x2022;" horiz-adv-x="759" d="M96 594q0 -119 62 -201q72 -96 180 -96q150 0 252 109q104 106 104 260q0 141 -37 206q-57 100 -208 101q-352 0 -353 -379z" />
<glyph unicode="&#x2026;" horiz-adv-x="1177" d="M137 45q0 -55 78 -55q80 -1 80 71q0 53 -80 54q-29 0 -53.5 -22.5t-24.5 -47.5zM530 45q0 -55 78 -55q78 -1 78 71q0 53 -78 54q-29 0 -53.5 -22.5t-24.5 -47.5zM922 45q0 -55 79 -55q78 -1 78 71q0 53 -78 54q-29 0 -54 -22.5t-25 -47.5z" />
<glyph unicode="&#x202f;" horiz-adv-x="376" />
<glyph unicode="&#x2039;" horiz-adv-x="442" d="M66 440q98 -109 176 -321h22l146 88q-37 98 -81 178t-96 145l11 9q123 98 192 192l-35 43h-22q-70 -78 -132.5 -140.5t-121.5 -109.5l-59 -49v-35z" />
<glyph unicode="&#x203a;" horiz-adv-x="442" d="M61 164l35 -45h23q129 156 313 301v33q-102 102 -178 321h-25l-147 -90l20 -43q84 -174 160 -274q-74 -68 -124 -118t-77 -85z" />
<glyph unicode="&#x205f;" horiz-adv-x="471" />
<glyph unicode="&#x2122;" horiz-adv-x="1892" d="M14 1298q0 -135 179 -135q121 0 229 31h-2q41 10 98 90q-2 -49 -6 -124t-14 -177q-10 -119 -15.5 -201t-5.5 -129q0 -90 37 -129q29 -10 50.5 -17t35.5 -11q-8 59 -11 97t-3 54v17q0 135 18.5 307t57.5 383q98 8 189 11t179 3q49 0 55 45v4q0 45 -63 45q-33 0 -115 -3 t-213 -7q-150 -6 -251 -12t-158 -15q-82 -10 -127 -16t-56 -8q-88 -25 -88 -103zM109 1274q0 41 292 57q82 2 117 6v-28q-162 -52 -309 -52q-100 0 -100 17zM621 573q78 -102 161 -102q121 0 224 164q27 41 54 111.5t60 171.5q23 72 38.5 115.5t19.5 60.5q16 -106 26 -175 t15 -102q47 -287 165 -287q94 0 191 306q23 72 37 122t22 78v-127q0 -147 27 -274q45 -227 141 -227q31 0 60 53l-15 28q-66 14 -88 148v-2q-4 39 -7 91t-3 118q0 94 18 289q20 227 41 270q-6 43 -71 55q-14 4 -35 5t-47 3q-37 -16 -37 -82v-45q0 -37 -2 -39 q-20 -92 -48 -189t-63 -208q-84 -250 -108 -250q-51 0 -78 254q-18 168 -19 312q0 166 21 215q-78 55 -115 55q-68 0 -67 -86q0 -137 -70 -359q-145 -471 -283 -471q-6 0 -35.5 6.5t-82.5 16.5z" />
<glyph unicode="&#xe000;" horiz-adv-x="768" d="M0 0v768h768v-768h-768z" />
<glyph unicode="&#xfb01;" horiz-adv-x="344" d="M-20 -313v-27q0 -375 165 -375q51 0 66 27q68 113 68 403q0 137 -50 357q37 14 66 39h-2q20 14 41 49q6 -43 20 -74q35 -84 107 -84q70 0 121 119q4 14 19 58t38 122q68 221 68 285q0 49 -37 49q-31 0 -47 -66q-14 -55 -25.5 -99t-22.5 -77q-23 -78 -38 -127t-21 -71 q-29 -92 -51 -93q-39 0 -39 115q0 125 37 307q8 37 15 64.5t14 58.5q0 47 -70 47q-33 0 -60 -24q0 -37 -12 -172v4q-57 -213 -71 -246q-39 -96 -76 -100q-10 29 -19.5 50t-17.5 38h2q-29 53 -72 67q25 340 105 811q18 102 71 189q-47 41 -84 41q-53 0 -79 -25 q-129 -883 -129 -1640zM74 -317q0 172 18 421q18 -20 47 -38q58 -148 58 -392q0 -29 -5.5 -70.5t-15.5 -99.5q-23 -129 -41 -129q-25 0 -45 131v-2q-8 55 -12 99.5t-4 79.5zM367 246l2 2v2q0 -2 -2 -4zM383 1141q0 -41 28.5 -73t67.5 -32q68 0 68 94t-86 95q-25 0 -51.5 -29 t-26.5 -55z" />
<glyph unicode="&#xfb02;" horiz-adv-x="346" d="M-20 -313v-27q0 -375 167 -375q51 0 66 27q70 115 70 403q0 152 -52 351q78 14 152 71q69 -162 182 -162q102 0 197 291q82 246 82 320q0 49 -39 49q-35 0 -43 -57v2q-18 -66 -25 -103l2 2q0 -8 -8 -18q-104 -381 -162 -381q-23 0 -55 55q-33 57 -35 84q23 23 45 66 q88 162 138 452q20 125 30 244t10 236q0 195 -147 194q-78 0 -86 -156l2 5q-29 -86 -50.5 -197t-37.5 -248q-31 -252 -31 -450q0 -49 1 -83t3 -53q-70 -70 -153 -69q-14 33 -22.5 53t-12.5 31h2q-27 51 -72 67q10 166 36 368t67 443q18 104 73 191q-45 39 -84 39 q-53 0 -81 -23q-129 -883 -129 -1642zM74 -317q0 172 18 421q29 -29 49 -38q56 -152 56 -392q0 -68 -19 -172q-23 -127 -41 -127q-23 0 -47 131v-2q-8 55 -12 99.5t-4 79.5zM453 432q0 133 36 365q43 272 105 467q4 -23 7 -55.5t3 -75.5q0 -455 -147 -777q-2 43 -3 61.5 t-1 14.5z" />
</font>
</defs>
</svg>
